<mxfile host="app.diagrams.net" modified="2023-11-06T03:06:02.467Z" agent="Mozilla/5.0 (Windows NT 10.0; Win64; x64) AppleWebKit/537.36 (KHTML, like Gecko) Chrome/119.0.0.0 Safari/537.36" etag="-9W1OZQyzoETRjDN5kSM" version="22.0.8" type="github">
  <diagram name="第 1 页" id="zphA_GorvQaAI1Rt9RCq">
    <mxGraphModel dx="1434" dy="790" grid="1" gridSize="10" guides="1" tooltips="1" connect="1" arrows="1" fold="1" page="1" pageScale="1" pageWidth="1169" pageHeight="827" math="0" shadow="0">
      <root>
        <mxCell id="0" />
        <mxCell id="1" parent="0" />
        <mxCell id="1MljCELuAj6sRFgwagAY-1" value="" style="shape=image;verticalLabelPosition=bottom;labelBackgroundColor=default;verticalAlign=top;aspect=fixed;imageAspect=0;image=data:image/png,iVBORw0KGgoAAAANSUhEUgAAA2EAAAGzCAYAAACmZR8yAAAAAXNSR0IArs4c6QAAAARnQU1BAACxjwv8YQUAAAAJcEhZcwAAFxEAABcRAcom8z8AANeXSURBVHhe7P0HYFtZgp6J2h7H57T2rv2867Wfvc/rXb+3Ts9hnSZ5PO5J3dPTXd01naqqK1d15VxSKecsUZmkxJxzEnPOOSeAIAkGgABIECAAEvl/51yAEiUGiakY9H/dfwHn4OLi4hIk7qeT/szMrA0MwzAMwzDMypmzzWPO/nzF7nBhymCE0TQDm9254jbfVuTr66eMmJ6eFce1s8fCMFsVShjDMAzDMMwa8ftBCCFbCiWMYRiGYRhmjfh8tDBCyNZCCWMYhmEYhlkjlDBCyFZDCWMYhmEYhlkjlDBCyFZDCWMYhmEYhlkjlDBCyFZDCWMYhmEYhlkjlDBCyFZDCWMYhmEYhlkjlDBCyFZDCWMYhmEYhlkjWylhTpcbdS09KKlpQ2efBm63J/gIIduI3w2r3QpvsEh2HkoYwzAMwzDMGtlKCWto6xMC1opxnQG1zT2oF+XN4rUYMaI2Bksr4YfBOIER6xPC57JhYnQc7mBxJcyGUWimF4KllfF5vfB4fcFSAL/XA69n5y75HboJjI3NBUsr4cGo2GbqibfmmTNhYsKAx9/N43jFe1t8v37x3pWyeK++b2FBObdVD02PCs5g+UlWPwQHilLDUdq91ufkER7bNNTdo1j7J082AyWMYRiGYRhmjWyFhM1abRidmEJWUS2sc3albs4+j4yCaoyM62GasTxbq5jfhYmRQXR2daOnp0dJdUYCblxOQHuw3NPTje7efszYH+1vQdeJmxHp0M4HK8TldXNeNLLKuoNlgd8N48QwerrFvnt70dvbhwdRF/Dh8Ruo6+oT5V7xWA9Uo2NYkH7l1CE7+RpCI+MRGxWG+0lZmLbbUJF7E7fvxyI+JgpXI6PQZtjmS3mPA8OqPnSJY1s8JwWR93A3NOdhuae7C72DQ5hzPfpZTvVU4mZCER6qmteMksRwlLVNBCvEWZrRo7+rF2q1Gj1dgxgd6ERqYixiY6MRcucawqLiER8fg8j7aWhXzQaftX3YNHVIvx0Pc7C8iM04iKK0LIxNu5TyrE6Lns4u9Iv3rBroFz/PHtRkRODw0VA0dPdCpdaI+l50dfXDaAk85zGmVUgLLcbDjwvZcihhDMMwDMMwa2SzEmYwmZFbUo/88ka0iAt5f7C5Qt62dg+isLIZOcV1aO1SKfVr4nOgq7kKBUWlKCsrU5Idew9XL9xDUbBcVlqK4tJyjCotWD70t9UgOTkexw9+iuMhEUhPT0dS5BV89fkRRCSlIrewDLPS1xwjuHnzMu4n56KouBB5OZnILypBceEDZGRkIq+gGAUP0nDj6DF0TPoA+yBCk2+hc3IW5qk+ISf3MaKfRGLmddQMmzFrnkJyxjUUaqzKoT8Nt3UGPX0aPNlg91ScM2isKRPH/OicJN+9hes34h+WS0uKUVpVC4NdHLdfCGhNCVISIvDVF5/icniCck6ib5/CVwfOIj4lGUXVTZgXPybLSB+KEsJw5OJR3E8swaDWioV5G0yaBty7HYL2SfE+LaJuwfVsnxOfB6ODgxiZ3pje2EebkBOR9lAc7bZpVJYXISopGTVdI/AoDXR+jHeL7cTPLOzaUVy5F4u83DzkFxTgQV4ecvOyceXi17go3ndWZhEGRyfQWpGF5NQ08XPOQEZmNlKjQnHy8AUkiH0odeL8pIjHK7q0yuuSzUMJYxiGYRiGWSOblbBWIV4dfUPB0nK8Ph8mpkwormoJ1qyNe24Kg71dSktVX18f6nJTEXYzFZ3ivizLljDVxIy4FJfYkRqWiJTKAcyYZzFtVCHhYijKWrUwz85garwTKZcuY9Astl7QoaSxE9KBzNpO1PV0wjHvwJwTME70orixCzbxmLaiEMNGr5CfUYTdPYAbkYlIiL6NS7fDYXTMIT32EK5GpCIjJR5Hr55F+fizCYfP5UBnfS3yytphcKyvK6NjWos+8b4Xz0mJbJ2KzFfu9/X1orunByNGefQCzxTCriagtHsMs7OzMA63IuLcfbQMT8Nsnoa2pxzxV+5Ct9hA5BlDTEE8lI58jlEkXLuJsPthiAiLQJKQ24g7txAaVf9sXff8Pug0fcjNrUCXELr1IiUsPyoDk8YJdDSWIDYtDWXtapgcK39GpweqkFE5HCwt4kJZWgwGHjUBwjg5jKEhDYaHhzGq6Uby5QN4680vkFLbgdHREaVePj45HTyHZNNsSMKmzXMMwzAMwzC7Oitdw2wkm5Ww9h41CiubMDQ6Ce8TY6cWmZmdQ1ZhrbLtnN0RrF0Zp2UMLQ01aGhoRGNjI0pSYnHzaixqxX1Zrq+rQ9uQPrj1AnJionDhdkygRSMjAZePnhXSkKyU05IjcfP8FWhmA+/RbdOhJi8LuaVdGNR0IfTsl/jsXCKmXE6oukuRGJuGlkGLInguyyjq2uqhNUwLuZsQElSL8uxqNHS3oq4yB6kPStHaWYOukelgC82z4MVYbzvyCusxbAh023wW5qYG0VhXq7x/mZyIcNwNTX9YrqurR+9EsLugdxqRN+8KeUwKnJOkKJw/ch6RSfL8ZCAp6hbuXI+AabFFzjKIiJxoaIWMenVCUEILIX9CeqVr5hy8pgHculOO9XRGtJnGUV5UjobeifVNlmHoRGl8LgwWA3pHp4KVq+O1aJEdl4GJJadydrAYUQnFSkvfSlj7WpCXmIy0iDRUlPTAsj4fJs/IuiRM/kEzzVgZhmEYhmF2YQLiZbY4xK19y2RssxJmmbOho3dI6Y7Y2N6/oojJ1rDB4XFUNXWhpLpVPGdlAXFbLGivrkVDSwtaRNo7OlCZEY9bVxPQ2Bqoa21tQ3N9E3pV0+IZQsKiM5DbqIHJZBIZRuYtIWxdY4Hy1ABybt2GekbRKgw2VKJfdiWc6kXk3fPIaOlBT1UObl5JxdQc4LdMoKKiD1ZxYa7rL0VqcgrS09KQnpGMkDNH8eUnX+PIuauIi7uPsHsRSE5JRnp6LZ4yt8cyrHpxvvIr0D/59JYXh16P5qoaNCnnpFWck07kR91HaFgWWoPnqbWtFU21zVCPi/MqJCzmbgZqB3WBczDWjcTrCejUyvNjgk5Vj4w7UUI8gy+wVML0vUi7V6JMjNGRkoaSeh185iGEhlfCEtj62XHOoqmyHBUtI3A/TVLdbvTV1CA/LRI3zlxFUW0dmoRc1tfXo6aqEpWVIhUVKC0rR+vo0sk3XGjIiUV2/WJrmB2liTdQ1bMo6Y8zb+hAalwmRgcGUZBYiZ6eJjxobOOsitvAM0tY4A+ZuC/zWB3DfLuZsdgxa3UwDMMw2xCz+Bs7Pbvy39/dHnltYjDNYmzSAL3RrLwXKWaLj200m5WwRVziQlqKmN44E6xZmSYhap39K3df9MzNoau2FrUNDWhubUVFVgwOfX0M52+HoKhC1LW0o6OpBjl5hejVyOkbPMi4F4oTV+8jOTlZJAYXD5/CrXtxSjkxLhSXjp+F+mEzjhO9lVkIOX8MRUsu1KeaKxF9PxzlncPisv5x5sxG1GcnIuxuJIYnJpGTchfFDT2wrzXt4lOYGVehsLAaKv3TW8PmjUa0VlejTpyTFiGiebFhOHjwKK7dC0d1faM4T51orS9D1oNyjOhkG5YZoZdCcCk0NnBO4u7h7KEzCI+V5ycZsWFXcO3iHZgWzSMoYWPijfuWSlh6DsqbDfDOqDckYT7HNBqEPNV0aJ/eUujxQN3cjLLsWNw5fx3l4r3W5ifi68MX8aC+GQ2i3CCErFbIWdf4458vn2UIUffvoFcI7VB9EaJzGzG/0us5RhF3KwTlw8K2p1VIv18Ku9+J7rwUVLboghuRreKZJEz+8TJOW+GYdypTX8o/RUpEgWG+zUicTidmZmYwPT0tIm8ZhmGYrck07PbARe9Kf4N3e2ZmrSgqrUB8QjKyc/MxNDIm6gItYitd3zxrtkrC5DTmchKOySlTsGZlapu7lTXEnoZ3Vo2k2Fh0j5sw1tKAarXQAIcWxYVJyGkdVK7VfL4FdDYIMRvSwWwWYmrWIvt2HOp7JgPl6Ql0VFZhas4Ly8QgUm5dxYkDn+Lk+bsoKC5BQX4+8vMLUFJWiCQhJ58fOoGkuDx0dWrQ01SN3OQoXL4VivicKswuSpfXguqMZGSmJ6PgQRbyC+thtD9jW4rfDU1HEx6UtmLSLFVnfcyNNSEmJg1aIeF9VTVoN3rgne5FZm4SKgYnlW18bgsaqtswOGEKnIOJXiTfSEL3hDw/Zpgm1WiraoDFFTQV54iQsAhoHF64J7qQFFoIt5DbovRs1GvF+5oZwI3bZevqjjg7OYySwkq0q9f+LDyJf6oThTHZQRH2oDInCqXdT++WOKOqweVjh3AoJAuzKwiY32FAdkwEHjSOByqEhGVFlgXGuTlNSAmLQE3f+o6VrM1TJWzxX5emTBZFwgjZSdxuF4xGI+bm5pQLBYZhGGZrI7tjORxrj0narXR29eBeRDRi4hIRERWLgsJSmJTrmMD1zErXOc+SzUqYHOPV1q1CYUWTsk7Yit0RvV6oRyZRVtemiJrNscZkFi4TWityce3A17gUXhicgMOF6pzbOHThGmqHJuFWKufRUpCFhIQEJCclKrcJCZE4f+gkboRGB8uJSEpJEuKahwHNONSD4+goyEdiQsmj6d2DaS3LQ1J0GbTacYyPGTHRW47j37yB86EJSE+OQXRqrjJFfdWDu4hIzEBc6EW8+cmHiCztwZzzaU094hw4bUqLVkFtD8zO9Z1zj20C1XmpOPPpFwjPbA/WziAr+jyO37iHbl1QIFwzqBRymCDOR1KifP8i0WE4/c1phEYFy4lJSEwS5yytAtrJCXQ3FePm9aO4HpqE6so6VBX3Yd4+gdCzJxBd2Q/r7CSys9uVSUueit+H8YFu5OTXYGBq/b9ncmKO3Ii0R61uVg1ib95A7eDqratGbT8q8zORnpiMmHv3EJ+Ui5GJR58v/4IeOaGHkVzahSm9Ft3dPUJC8xF6OQaNvT3o7R/GxEg74m5fRWHDqDJxC9k8zyRhsilfb5ylhJEdR8qX/FcqQggh28P8/LwiYnuRhsZm3I+MQVxCMqJjE5CRlQvDtGXTXRI3K2GyVUt2QxweW71L17TZiuziOvSpR8X11uoDqJyGKaW7XXxZBQY6W5ETVYoZIXmdrbVo7uxEVVEGkspqoTHZML/ggtfjhsvlgtvtDsaEgrBktA/LdckW6+Tjjy6t+/PzUFCmVsRwaeZGO5B2vwQPOwjODyM6JwJ9U5YVp6i3WGeQnR+KqslnGxDmnjNjUK2F4+m+9hizGg1So24jo6YRvTVVyE5phNVhQUN9DTq621Ek5CyjtgV6qwMLTjc84j0/dk5mR5BxJx0a8+L5WHzcg6nBdmQmZaKtXwdPsM/gwrQKmTGRKKhsQ3FhPO7ezoPW8ox9L30ejA9pMLHS2lzPgH2kCfkxWbCJn+u0ToUOnRkz2lZEht5CQfPAw7FlHucCDKou5KUlIjc3HTU9wanlfbNoKE3Hvdt3kZCahoFxcX0/M4GB1h5lgeqBlnKkZ2QhI+E+Lhy/hpScLGRllWBcWJ9zph/1DX2rLhRN1sczSphVkTC7Y52jKgnZYqSEyelkCSGEbA97WcIam1oek7DM7DwYTDsvYXJtsK5g90Kf369MwrE0siulnKK+oLxJ2WYtvPMO6PSBdhDHUB3Of30Gd+NSUd6tDnb5c2F0bABZ6WnIKe1ZYUIFC/JvyUkoVm9p68tLxOmjl8U5lIsSLyYGoVcv4GpI3qPFjW1q3L75Ba7di0XM/es4d/02xmdMSIr4GufviJ9D9H0cvHgSxaPbO62502LBlCnQqjRel4uTB84hNC0XDaoxWKUbeWwYHupGkvhcVLSssM6VfQxp11PxtMP0Oc0YqK9AYnwKanrHFmuhqcnF/fup6NE9ffzaZnFOtiPpnPiZh4QhIqcYw9bAtblzbhSZ4rOfmJCPniE9BqpLkJFcBfXQyLIxfBKPXYe+5lKEhiUKIV9hqnzzELIiyilc28gzt4RNUcLILoASRggh28u+lDBxLbOTEjY5NY0HZQ0or2tHeX3HslQ2dCqPr7WW2ErMTY1hQCNnQFwPLkyqRmG2r96pbHZ8XBzzciPxOmahVeseXdS7LFCPDQVarvwLmBD3bUISRybUwfFhfkxODmBybhMzdKwT4+gwhiYeauKz4bFjbFD71IlEPHY92uo7H419W8KMOGeqsfWv+7VezKom3Lx0DzUDgfFtT2IQstnYNaq0am2GeV0/sqPXN86NrI9n745oMFPCyI5DCSOEkO1l/0nY7I63hEmsNgcmhIxJIXsyE3oTpme3/wKe7H08TicWNmtYz4Df54VzwRUcb0i2A0oY2VNQwgghZHuhhC3PVkgYIYQshRJG9hSUMEII2V4oYctDCSOEbDWUMLKn2FIJ8/swb7fDzS9XQgh5CCVseShhhJCthhJGVsEPp8MGi8UCi3UOLs/i/EpyQczg3dXweTFvswaeuyxWOF0bX2Fi/RLmxaxJD/NC4DW9Hg/cIh4Rp30WzTU1GDLblLKMfGzxu9Y2a8DYhGH5ehheB0ZUg5gwrTELknsek2NjsHv4xU0I2VtQwpaHEkYI2WooYWRFOiIv4c2fvonDx4/j8MFP8dOXXkaTzo3RykwcuV74mJiYDTNYCKwKKRzNhHvvvYGX3v0Mh48cwZEncvjQZ/jFz75A6cA6Zy4Ksm4J87sx2d+Eivo26Czic6zVQD00BI1G3A72o7ayEq19g0pZI+rlVK7m4NqJ2u4GNPfrA4VFvG5oultQVVmBqqZOWFeRLJ9zFr2N1WjuGUFwWRFCCNkTUMKWhxJGCNlqKGHPI35hBUsWZVyJ8jOf4NzdcuEcbvjsQ3j3lz9ETr8Ng7n38erBpIfrjtRlh+DFTy5haDZoGt4RfP3iL3Cvd7X1R1w4++khRNY+ITfPyIa6I/qcGO1vQ/+oCQv2aWgGVYqIqQb7UFtVJSRsAENSwNQqDI8bxAXIHMY0fWiqqUJzV7/YToUJkxV+vxcjve1o7R2DnJ3WONSB1u6RhwsjLsNtR29LA/rHOYaNELJ3oIQtz1N7gBBCyDqhhD2PjDcAlyLl+oKrUnX5G9yOzkfGleMoKq7AVx++ggeDdqjzo/Grk9nwuU3Iv3kYbx88i9phMx42CPkmcPxP/hivHb+FxMTEZUlIuIOffv9tJLU8ua7JAnrrhRCpDMHyymx6TJjfgwVxgbGwsAC7ZRqNQsJUJotSlvWyq6TP54XVoEZtfQdmbQvigsQBq0mPrtZ6lFXWY2hcD71eD92ICnUVpWgUIrbgWr4cpsRuUKGqphXBtRQJIWTXQwlbHse8E/MLDMMwWxdK2PNEfRYQXQxMdgJhmYBpGLgTJqRs+c9VStid6DzEHv0EWTkl+OqDl1E47IWuKh1fXMxBXWUsbscVLx8vBRfiDnyJ05EZKCsrW5bS0kwc/vIi6iaCmz9kGjc+eh3HooQgrsF6JcxmmsRgfw96BoZh0OkxolZBrR4KtHypBtDc2IjOgUGlPDSkxqBKDePsPOYnBtHU3QX1mA4WkxkqcX9ENw2rxQLzzDQMhinopwyYMZsxOTGMwcFRzK/QXWVmqAMFBYXo0Bi51gYhZE9ACVuegIS5GIZhtiyUsOeJ3mrg4CEgPBzIFTJ24yJwJVqYwvImsUUJSzj5BXLySnHwszcRX1yD0IOv4zs/eg9XroUgKi4R0RFhuHkzAqVVPWgoTMedmzdxOzQc8SmpSElORvKyJOJ+eBhu3b6DO/ei0DW5uCK/X+n66PGu0TwnWK+E+bweuBb0aKxvxJjBAbfLBbd4HZfLCafTJV7PK+rkfadSLx/3eJ1Qd7VjYLQfXV3dMM4JtVwwQzcxiclJEb0R8w9Xy/fDbJzCtNW+vGHRY0dXUyN6+zrR3N4Nq2vt90YIIbsBStjysDsiIWSroYQ9bzgNQOpd4GooUNYerFyOImExD5B86jNk55bgwKevI6W2B5lXDuAn711E9NUv8LNfvo+8slIUFlagu38c6s4mlBQVoyL9Gv7o138PV5JLUVFR8UQqUV1dhQrxvJLySmjN6/tMbaw7ohltzS3QWYQEuWwY7G4XxzsIlUq1JIPobOuA1jIvzG0WLXU16FUPobO1FaNTFhgmutDQMgSLxYzOliZoJk0YH9bAYJ5GR10tVHpL8LUeYderUFPfDpvLg+HORvSMPNkFkxBCdh+UsOXhxByEkK2GEvY8MdAAnDwJZGQARaXAtUvA7WRgcVKNJZSd/RzX76bi9smLKK2px0dvvoAclQvj5cn45HIV4GjDRx99DrUz+IQlaAtD8MM3j0Pv8okvriezuS+yDUmYf+aRhDlMaKyphsbkUFq/HmbBgc7aanTrzYDXianxUQyP9KGhvgEDI5MYG+tFU1MPtNoRtIgvea3eKGSuE9opE3qbGzEkRO0xfE70t9agbdCoFF2z42hqbIfFpRQJIWTXQglbHkoYIWSroYQ9T1SlAdElwpLagIgcwDgIXLoGDC9f76or9T7ys7Lw+dsHEfOgDTFhF9A4voCBvCi8czxbbOFC4uHXcLtgIPCEJXQU3MFr77yHoytNUX/4G7zx858ivES89gbYjITpreK+cxattZVo7RmEWq1ekkHUV1Wjf2om8BwFO3rb2zCsM0M/1o3WDi1sNit6O9oxKiRM3duNccPKEjar7UV1YwfsD6XLA21vM1oHJjg2jBCyq6GELQ8ljBCy1VDCnkdUQsROhwULq+M3VOPjl/4Dfvc/fYKS7sC6Xp2Z9/H2USFzAtdIFn71/ldQLe+JtwbzuPLhn+JsalewvIgVOfeuI7FKFSyvzEYlrL21FWMGK0xaNZoa6jFicgRmRFzMvAPdDXXoM1jgc9kxplFhUNWN+vpGDAyPY3S4C42NXRgeHkJzYzO0U0YMdHUoLWJPSpjHqkdDdS2Gpx//ffHPCxmsq8ewabXp+wkhZOehhC0PJYwQstVQwp5HPE7gqT9LO5LOHkZIdie6C6Lwox99hCq1Cb054fjgdBYsU2MY7NOjLvUiXv/6DAaNK/RLXAlTK97++dvIHXxysWYLkq6fRURpf7C8MhsbE2ZBV1MVKus7MKIeQXtDNVq7A2PCZCvY4syIDZVVQsLM8Pu8mHfYYbdNoL2tC7NuYME8gJYOrbg4saO/sx0juhlMTU5gds6CnqYGqPWBY/LMGYVo1aBvdOXxX3PGIdTWNmHS8YznixBCvmUoYctDCSOEbDWUMLIM77wZude+wdsn7sMcnIO+LSsS90pakfTlT/DvfuMFHD+RgI4B+SXtRUn0SXx2JQ7WZUPLFlATfxcHv/wah2V3xEMH8dH77+NCYj02qiAbkTCPZRx11dXQTDngt0+jUdwfmwt+ofo8inA57Fa019dDbZB9FheZQXtzKwx2KU/daOoYF9va0NPWjGG9HR7XghA1vdhfLYZNdthmdGipr0XviGmNLoc+TE8OoK6uEcNTVng4YSIhZJdBCVseShghZKuhhJFlLEx2IysmC/pl6w/70VYRh/RquYjxwznaFRx28SUVvP8IPxyWGUzpp2AwGGCYmsLUzFLJWT8bkTCH2YQJXeCCwu+0YWxkBLMLgaNdmDNjWFk7TGRUt2TqeYHfgcnxSdhcgMthgHZiAlqNBurhMdjcHszotFCpBqAemYTD6YdBO4Qx05MtfCszZ9JBpRmD/fHTSAghOw4lbHkoYYSQrYYSRvYUG+uOSAgh5FmhhC0PJYwQstVQwsieghJGCCHbCyVseShhhJCthhJG9hSUMEII2V4oYctDCSOEbDWUMLKnoIQRQsj2Qglbnm9LwpxOYNoCmKwrx+zAwwmdrHqgolU8J3hoXq94zC7qGoDJ/bgSinsa9RVVGA9OrDXa3gHtzNJ1Tr3iHKzxc1rQo6K0HMNTRrRWVmPCsV9mxvLBMWfB9PQ0ZmZmApkeQ01REdpHdI/qRKanZ+EMfoA8s2Mozi+FSXzm/D4P3B4vbMY+lFd1QHzM9jXz2naU1PcGSyvhQ1tNCXon5rBgs2LOZod11qycQ7NF1DndW7LmKyWM7CkoYYQQsr1QwpbnW5GwaeByDHCtAIgqXjlnI4H0lsDmxn7gSqJwE1kQl2dR6cDgCHAnGuh9tjmi9hZuLe5dvYnOmUBRU5uBkLuZgZmZ/XYUp8ahw7DG3Mv2flw+dx6tYwvor0vC1cg8TLu/hZ/rtjOP9spcxMYmIi09DSkpKUhJisDhTz/F+bCYQDk1FWmpSYiNyYR6OiCuo7XxOHYlBfPi/NVmRaGgYwrO8RJcuZEG4fv7BrfNKISqApU1tWhoaBRpQFlGOD5+/wBSi2uUcmNDPWoqK1DbPiB/lTA/Wocbt+IwJT5OqpoknDx6DDfCoxEfH4/wa+dx4WbqlpwjShjZU1DCCCFke6GELc+3ImEG4Mgd4EYZkFErZKtGRNw+vC9yKxnIbRfO4QW0PcDXl4FyIV7OceDL20CrqLsaBZQOiYvsKWDEKPwsuNTMXmZhbhrjQw24cyUEZV1aGKenMTXeg/CQS0q5MuYcjl2PR5ds+ZkaRGZ0NKLj4hC3NFG3cOCLL3A5NB7JKXE4f/QIwrKqYNkH50di0jQhMToJuQ8e4EFeCs4fOYJb8el4IMo56UlIzm1QBCOABwXRN5DdJj50sCDi4kmk1g9B1ZSGS9di0Ds+Du3YOKbn9v51v5SwjroqVFaUIS8rHcnJyUhJy0B2ViZSU5KVckZOPsorKlHfMQj7nB752RlCVq3oKM1By+AA0u+Fo1kf+BvQmHlHfG5asWwC8Q1ACSN7CilhZrM5WCKEELLVUMKW59uSsOsxQFIDEF0KJFSIlAPxIvJWuV8JDM8BY93ApXtC2MKBuw+AGCFnJxPFbQHw6XXgSp7YRxFwX2yvX9pjb48yNVCPdCENBw8cRGhiJirr6pCdlo7U1CRcPX0Ex8/fQJJs7cmuwOSsA3abDQ7xOZaf5cXYbSrcOnsOeU3jmJ21wG63w2Z3YK0ejHuJntJ7+OLzs4hPSkJSYgROHjyIy+HRSBLlmFtn8cXxcOiDy+J4TG24cukaVPOAQ1uFqxevIiE5FbHhF/HN4bOITUkR+0lF/YAw+X2CbagaV89fRXpuHvLyliQrBWcu3USPMbBdb/YdHL4UigfZ0Th9Ohz9uhEkh95AhcYJ31w/7lwLQ/8WNRVSwsiewuVywWg0wib/wDocDMMwzBZHCpj8G7sX2dMSphdSlSDewwiQWS2EqgS4lyqk6paQKXFfillWS2BcWKGQrNvxQsoKgcEO4KubQlTkPjxAuKgX14v7DudIHc4cOoaWJ/4dtjnrPh50Lr0q9mPWOAHVwCBGtOMY145gcFAFnVGL+DvXUdQ1Hdxuf6Hvr0ByWjnUGg00qhaEXbiAtNpOaER5oKUCSRnlmA023zTEn8Ebn57G6LwHlbEhSK4bU+rtY+W4ey8P+3FIoXOyA9Fh95CdX4CCgiXJy8Tt+wkYsQS2sxgm0FEeh08/E5+1KdlMakDI0Q9xKaUddkMzrl8IQeitS4jMb4Yr8JQNQwkjew6n06kMQJUXCvKWYRiG2ZrsZQGT7HUJuyqka2wcOBkuBKwciMsCDor7cZVAVDYQkiG+A8WVX2cf0NouhEvUTQn7ahbleTfgMALXo8Vj4tYhRGxBbLs/Gnp8aCkIxa9efgOfnbiC+n416gqykZGZiZAzR3DuRjQy01PxoLoDdo8b6rYqpKem4/al4zhx6S7S0zJQ16lGTsxtZNZqgvvcR7imUV9ejJKyClRXV6O68gGunDiBe1lFSrmqvBRFpXWQv9nO8SZcOvk5vj4TjsFJI4rTMzEWlHbbPpUwXX8zctLTkJmRiaycHOQ8TC5ysrOQKT5HqVl56B6fAzwzSLh+GfElfXC7PfDMqnH72If4+PRN9Jvlb5MLeaHnEJrfJT6Vm4MSRgghhJB9wV6WMN8kcDlZuNgMkJAPJNYASbnAoXtASp1IKZBeL3UkwIwKuJWiNH6hTwjZLSFsd4SkfXgNOCtubwpBS6gVF9b7YMyTb06H7OgLOH3tPhLio3DjZhIGR4cxNKRGauhl3MuoUe6P6qYfG6vTXRyLOHExvUhjfAjuZjcFS/sFN8b7G5GWmKh0PVTyRHfExLhQfPPlN0iraEVbfTlKW6qReC8GnWPT6G1pQHNbG9pEKvIicObcXVSJ+y3NzehVj2+6tWc3UJ14HddjiqBWdaM0LxspclxYSgqSk1OQW1iNfrUayaEXEF06ALehAzcvXEFMUgpSM4vR1VKFO7fvozAvDtG5HTALiT1/KQxa++b/JlDCCCGEELIv2MsSZh8WEiXEqaUbiCwSElYFxIvyN0LCYoSARRcDEaK+QsiXxDAgxCtVPG/poVmA27FAT7Br1f7Aj4GqbKRnZyM+Kg79ZhvUbV3Qz9lht8+hKPYmEkv7xTWqA7Y5K+wLwYFPgpYHUYjO7wyWgPGaWJy7nx8UCz88Hje8m23O2HGcUHe1oK6+CS2tLWhpEWkqw/XTpxFTUKWUWxuLcOXUcYQlF2J4Rr57LSJvhaNjzITW6jIUFRahuLgYmQk3cezEVWQVF6EgPx+1bYHZAvc6denhyGjQAfM9uH7mGgrrm5Xz0lyeiYuX70POudFVFI3YEvHLJ3E7MNJdg9yKdnSVxuFqdBV8Tjuy757CJ18cxYP2ycB2m4QSRgghhJB9wV6WsIkeIFVIVnaWkK0SoKBaSFkS8Nld4GQYcEIIV36BEK/8wPaLEvZY1zE7cDcOGNwHk3E8woPx3kFMzagRf/c+emaEdDQUIi4mBvEJ8bh4/BucvHwXCfHxiImJRXWvPvg8oC0/BrEP6jHc04TyihZoVfW4cj4EatkvzzOGhPuxUM9u/8922/HZMdDVLiSsVWnRamspx40zZxBbVKOUWxsKcOVcyMOlC/xONe7fuIOu4HT/izgmKhAqJHW/DSmUEpZaMwrPbCsun7yMosZAy19rRSbOnruLSS/QWRiF+NJeGLSdSIq+j8TMckxo+3D30jnUji/AY5lA1PFP8NpHx1DeJWeV3DyUMEIIIYTsC/ayhD3IA6qEWJULASuuEzIVCVwRUlbXJ+pFCkRdhShHFQa2lxJ2W0iYSQiFVnjHqLguHFULWbsNFIlbWR6ZAmb3y6WbcxTRt8PQaXx8cvDqlDBk1I8HSwLfAqYmxtBckYNr50/izNVwlFRUoaKyBaY5K0qiL+BCZBV06kpcuxYN/T7orumdN6K1vgZV1bVobm1HR1slrp84htCMQtTU1KC6PAe3b4SjZzrwZqWE3bsuJOyJSVBN6iLcvJuF/TYHdWXCDcSVDcE714uwK7eQW1EdOC/VlSirqId6dATp4SHIatIKCVNhfEb+0iygNCEEV+JKoWp/gPPnLiGrtBMjI/2IvHIeUVllmJrbnK5SwgghhBCyL9irEmbRAjfTxK1bCFQ2kNMFeJa6hrjWqxQSdkUu1twWqJrqB+6kAP1CuKLzgcjggs73Ch6/36ELbL/nmR/G/ZBbaDcsPTE+lMbdQFLlcLAMuC3jKEhNRGXnCKxzNtjtj08z4TOrEXrqS/zi5TdwM6NJGVO3nxjpqkN5aSauX4+AammLqN8Lb/Bz7HeqEHr1JjqC07IvYlTlI+RWOp5oINvzaNpr0TJogF+egyd+lUc6KhEfE4Pk9DIYH/VkBRwGVDe0wjxtQtWDZDRoHq2A7l+YQumDNNQObG4pD0oYIYQQQvYFe1XC5i2ALniNZ54GZhyB+4t4xMV09yDQrBHXhsFDcQu30O3N5dw2xsIEshJTMDjzuIQ15SejqG0iWH42vDY9uvsGMTO/5weEPY7XBe1AB5qbW6CaXEOlfPOY0ulhXyodAvf8LHT6mX0nprsVShghhBBC9gV7uTsiIeT5ghJGCCGEkH0BJYwQsleghBFCCCFkX0AJI4TsFShhhBBCCNkXUMIIIXsFShghhBBC9gWUMELIXoESRgghhJB9ASWMELJXoIQRQgghZF9ACSOE7BUoYYQQQgjZF2yXhAGUMELI1kIJI4QQQsi+YKslzCwybbZBNeFHnxboH2OWpi946166fjIh5JmghBFCCCFkX7DVEmax2mCYtuHFU378+ifA73zJLM1vfQb87leA1uCF1+uFx8MwzNPi9fqUUMIIIYQQsi/YagmbtdhgnLHhZrYfpxOAc8nM0pxNAs6LW82YFTNmM4zTswzDPCX6KRN0eiMljBBCCCH7A44JI4Tsdmw2GywWCyWMEEIIIfuD7ZIwzo5ICNkqKGGEEEII2VdQwgghux1KGCGEEEL2FZQwQshuhxJGCCGEkH0FJYwQstuhhJE9jcfjYbYoPp8veFYJIWRvQwkjhOx2KGFkT+L3+zE7O4upqSklBoOB2UQWz6PT6QyeYUII2btQwgghux1KGNmTOBwOmEwmRcbI1iAFTAoZIYTsdShhhJDdDiWM7Enm5uaUljCytcjWMIotIWSvQwkjhOx2KGFkT0IJ23qkfFHCCCH7AUoYIWS3IyVMhhJG9hSUsK2HEkYI2S9QwnY3Xp8PXq+IvGWY7Yr4jO3m31m73Y7R0VFKGNlbUMK2HkoYIWS/QAnbnbhcbmjHdFAPjQWiYZhtzJBWuTVN787rxfn5eTQ3N1PCyN6CErb1UMIIIfsFStjuw+32YHh0AuZZq/I9wzDfRqT4j2p1mJ6xBD+JuwcpYW1tbZQwsreghG098o8VJYwQsh+ghO0+ZsxWjI3rgyVCvj2cTjeGNOPB0u6BEka2lTmjFv39Q5iecwPuSdy8dgW1o/bgoxtnIxK2+mLEHowMDmLavfKXq9/nhdvtxkqPetwueNda41gIjdfjDRZ2N5QwQsh+gRK2+zCK8z+pMwZLhHx7yLFhQ5qxYGn3QAkj62QB3fWpiIiIRFRU1MNERNxHamYLHGILbVs+IsLu4F5sLC5dOY3PvzyDsm4rJmru4Oe/OIAR++a/xNYtYX43tP1t6BqdgltIldmgw8SkDjqduNUOo6asDB2aUaWsm5zEhE6PueDHfGq4G2092mUSZjONorq0GE19Y1hNs3wLZrQ31GPEtHnx3G4oYYSQ/QIlbPchx+VQwshO4PF4KWFkr+FHfew1fPDOh/jqiw/x+bHrGLdM4tTLv4F3T8QhPz//YfLiL+FPfv8g2md9MKgbUZCXgQ/e/WNcrZwI7suK2x/+N3z3p+/i/PkLOHPyGA4dOoxP33sDb52NhXmt1qQVWL+E+eAQ0lRfVYGeUSNmDONQDaqgVquhGuhDbVUVWnv7lbJaJeqHx2B1uGC3TqO/pQbN/eOwzFpgn3cpu7OZJtBY14yhsTF0tjRg2GBT6p/E73VidkyFerGtcc4TrN2dUMIIIfsFStjugxJGdgpKGNmDeJB88Je4GlsPi74RR37xIdontbj09ktI6wxu8pBRfPX2eTQaHolG4u03cT63Q/mQ9RRdwmfHb8DgmEdpViweNA7COmfDva++jxcOJYhXWh8bHRPmdszAbF2Az2OHfmICk7LVSzuM+upqdA1rlfKkqJ+atsLtsmNsqAvVVXVQaUYwPDwi6i2YmdKioa4eav2csk+Hfgi11Q0YN8l2wJUxDHehqWsY63TNbxVKGCFkv0AJ231QwshOQQkjexAPMo6/i+iCIcA3jCvvfIVO3SSuvfddfH4pFaWlpQ9TknYTP3/hJHpsC2iOvo0DX36JP/3Bb+OHr3+Mw98cxJuv/Qz5Q4EueRc/fQFHU7rF7kfx7h/+EWKbDEp9gBmEfv0+zia0BMsrs14Jc9mtMJmmYbU74Zp3YNY8o6xSLjNj1KGuvBy9k4aHdWbzLBxOD7zmETS29WJ23gO/xwW9ugeNzc1o7+wVv9BDUKkGoRocRG9XGxpbO6EdN2KloWU2XT+KisoxYti9vzuUMELIfoEStvughJGdghJG9iAeZAoJux5XC+NYHU6++SW69HqE/Op38YuPLiEqJgaR98Nw9+5d3L50EC/+8CS6Z33KRBZwafH1yy/geEpApubNVnj8Pni88wg5+DLOpHfAOzuGgpJKzD3WPORAY34WyjvWnsVmvRLmmDVidKQHtXXNGNUaMDmuxcTkpDL+a1Kng168LzkeTLaE6YRoarVjMM/Nw6DqQftAB9q7e8U2FkxOTMI27xa/0DJeLP0+ds3PYmJ8Cs5lzV1+aLuaUV1VjqbeYbiDtbsNShghZL9ACdt9UMLITkEJI3sQH7JP/govvvg2vvnybfzkZx+hf2oclz99FVkdNph1E7AunZHC7RX/D3xBzTXH4z//s3+O3/zeD/D1/TyY3C7EHP0GCUW9CD3/PkIScnDp+CnEdwW69K2XjXVHtKK9uRk6IYoSx9wsZqanMf1EzEIYXcrbcKCzpRnDk1r09/Rg2il+kR1jaGvphlqtEr84HZgw2eCwzWHBOYeBzk5MzC7vkuib06O+rhE6owFdLU0YN+/O3x9KGCFkv0AJ231QwshOQQkje5BAd8SofLW4q8Hlt79C5+gorl5+DyXd/Tj/3pu4WapTtrSrynAtKRHTSjPPPFJPHMZ//v3v4k5uIS7fvYnYByl4/Ucvo0ozg8jTb+FyZgMyr76N//r2VZiVPayPDUmYfwZtzS3QWYSEOUxorK5Az4geBoNhSfRorqpE95RFvGcreloa0d7djca6OnQNDGFoqBOtnWPiF8eO3o42jExOYbCrA9opI3oa5TixJ4/JD52qDbWtKmXc2/RIN5o6NbtybBgljBCyX6CE7T4oYWSnoISRPUhAwmKKhsV9IV/vfI2O4SGcu/gRyoSQhHz+GeJrtWgsDsPPf/0/4bWvb2DEDlgGi3Ds1GVcuPEx7laNKnuqvvUlfvL5FaUr3p1vXsKZrH5gtg/f/8M/QFjD+hdv3JyEiS/RBTNa6qrRO6xTxONh9Dq01tSgbyqghn7ZhdJtQEdrO3SzTswa+9FQ3wmNZghNjc1CvkxQ93Zj3GBCb3MjhqS8LcFrM6CxphqjRmegwmVFV1MDhteYxGOnoIQRQvYLlLDdByWM7BSUMLIH8SLzxLs4cTUVrbXJ+Pin76GyqQbHPjuIYcscQj7+Af79f/wD/ODDL5DTIqRKwY/si4eRWDmItIj3cLV0RNQZ8dmLP8TlYvkL4FfGhJ1KaVW2fnDhTfzgrTuwP2wa8grR0WPauvZnbOMS1oqpOT+8c1NorqvF4Ljsfmh+lJlptIv6vqlZ+H0e2G1zsFon0S7EqbNPjcGBNrR1jsFun0NvRztGdYY1JMwFVWstmgcXp+kPMKdTob6xE7ZdNjiMEkYI2S9QwnYflDCyU1DCyB7Ei/RDr+InP/sA58+dwZ3EPJQlXsCbn9+B17+As2//EL/4Mg3W4HeSbbwfeaV16CjsxoLfi4Rbb+FW7RhM9aF4+RdHoFUag9wI+eYlnExqUp5j783FSy8dROe0UhSYcOH9X+BQXEOwvDIbGxM2i87WRkWmhnr70NJQi271GMbHx5dEi+bqGvQZLfC5HBgfkV0Qu9HQ2AaDsCar6cmWMCNUPV0YWyZhPugH21Hb3Iu5wNJij/B7MNrTjKZerdC03QMljBCyX6CE7T4oYWSnoISRPYgXFffOo7ApMO5LEvbBj3E4RSXumXDinfeR0v5okWLNg1v48Rt3gmLhRVTIa7hc3I/56UlMGq1KrSTki5dwPDHQEia7PBocZjgftgp5oNcOY3ImMJ39amxIwrzTaK0tQ12HRsiUEW11NRgYNyktYLOzFljFPuess2gX9X36meCTJBZ0t3dC9iC0mXrR1hswxuG+dmgmLHC73UJcHOhsqINaSpgQ0IkBIWCNnTA7Vh795fNa0Ntai1bVKBZ2yQAxShghZL9ACdt9UMLITkEJI3uenvzb+G+vfogBOaYKczj74c/xckgejCYTTCYt7n72Nn51vhiBrygP4m6/i6vFA0pJ0lObi8OHPsFb7x1E3ejGZkVcZCMS5jCMorWtBw4pfI4ZtDY0Qhd0PbfDirERDYaHh9DS0okp65I2Kv8Muju6FAmzzwyirUsN7bAGLXKcmGUes4ZxDKl70NDYDr3FDd1QD5o6+mGZXzp15HJ8HisGOlrQ2jcC+y7omkgJI4TsFyhhuw9KGNkpKGFkzzPSVI/ytsBEG5KJzlR8/OlbOPDNEXxz8At88MFZtOoWPxt+2OdmMLfwyC6krLS3d2B8enMCJtmIhMm1vdyeQLOT3+eDy+mEN9gK5XW7YJuzKvudd8p5DJfig9vlVtYEk+PEXK4F2G02OBZcinA65+2wWsXzXB4hMKLscMDzrN/Tfi8ccvtd0BpGCSOE7BcoYbsPShjZKShhhGwhGxsTRtaCEkYI2S9QwnYflDCyU1DCCNlCKGFbDyWMELJfoITtPihhZKeghBGyhVDCth5KGCFkv0AJ231QwshOQQkjZAuhhG09lDBCyH6BErb7oISRnYISRsgWQgnbeihhhJD9AiVs90EJIzsFJYyQLYQStj1Qwggh+wFK2O6DEkZ2CkoYIVuI3W6HyWQKlshW4HK5FAkjhJC9DiVs90EJIzsFJYyQLcTn88FsNivSYDAYmC2IPJcLC/zdJoTsfShhuw9KGNkpniZhsgfQyJgB47rpYM3qzFrs0Gjl9ZIrWLNxKGFkT+N2u5UWHHnLbDzyHHq93uBZJYSQvc3ulzAvpsYHMT2/dH8+WPQzcAdLi7isMxgcMopnLMdjm0FP//iSx7wYm5zAnCdY3EVQwshO8TQJK6nuxM3IfDS2q4M1jyNHaSz+7o+OGxGRVIak7NpNixgljBBCCCH7it0hYV50V6YgNjYW9++HITI+HlGhaejU2MRjblTl3EFWQQ7aelUI7NWPtgfxSK3qFTr2CHN/E67drcZKV17G/hLcSirG+KQWQ0MaDA+24FbYXeQ1DWB4eFjUDcFksQe33lkoYWSnWEvCnE437sQUoqN3ZMUx8fLvRXxmNSzWR79Hsk4+Rzuxuc8zJYwQQggh+4pdIWH+BdSlXkBORTNyS3OQUl2AvLBk1DUHJpVqKo5GW/8AHuRlokMfuK7yWrUIu3oFxf0GpSyZVbXhbmQ9nMHyI7xC2lJQ096H5upi8R5z8SAnBecvXcS95Gw8ePAAmRmpaB2cCG6/s1DCyE6xloSZhVyFxhVjWLvymPiWTg3uxhbC6XrURj2/4EJYfDH6VOPBmo1BCSOEEELIvmJ3tIQ50V50Cw+yWpBdlYeUvEo0ppahsqwHvX0dSLx3EVlV7WhrrkeH5tEF4Jy2DfU96mDrGGBRdyA0qhHLOj7NjSA2JgPDVnHfa4N+fBQj6jbcuReGghYVRkbHYbWv53i3F0oY2SnWkrA5+7yQrGIMDk8Gax4hnxcmBK2qsTdYE0B6kJQw1bAuWLMxKGGEEEII2VfsjpYwJ6pSLuJeZDyu37iA67HxiDgficycWhQW5+H25eMITchCXm4uuodGMdCSg5joFDR2PT7z73RfFW6GF8MRLC8yUZOEjy4nQHaSGqoPxfFrIUhMSkZqaipSkpMQcSMEF29XL5e3HYISRnaK1SRMdj8cnTAqLWErTcoxPGZAyL28Zd0O5f5ScutQ09wPr29p5+H1QQkjhBBCyL5id0iYG+r2YvQPDeNBQTJyOgbRW90C1ajsWOhF5s1rKNQ8UiuLSYuazDTciG4J1gQYrbmDz46fgXZJf0TPwgzS7h/Hx2GJsIlDUjeE4+zdcOTk5iEvTyYXyffDcOVuzQrdGHcGShjZKVaTMN2UGZdDc1BZ36tMvvEkBRXtiEopX3GsmGwFO309DS2dQ8Ga9UMJI4QQQsi+Ynd0R3RhsKIEqSlJuHbjIq5ExCMlpQQjJjfgm8TFc2eRnNv5sNuhxNTdhHtJ7UvqvOjOTsSlm5Ho0M4F64DZ0W5U1mUjoiAV015goDESEeVNyvqZixlpqcSt+3UrTuixE1DCyE6xmoQ55p0orelCen6Dcn8pdlG+GZWPyobHuyJKvF4fCivbkZBVo/xN2SiUMEIIIYTsK3aHhPmxYBGvadIhtyARme1azMxYMS8czDbRjPjMSGQUlWJ2SW+mydY6RKTJiz4/HA4HXJYhpOYUYai/Gfl1DViced7n9cI/3Ymw3ERMi+cPNdzD6Zu3kZaWjvR0mTTE3r2Fq6E17I5InntWkzDJnH1B6Y4o1wlbimzpkjMgyjFjTyI9SD42qOGYMEIIIYSQh+wKCXPOoLQwD8kpKQgLv4vQqGiEhkZCpZtG/YNstKlHUV2Qg9ohS/AJwFR3M+5GlqIkMwJ5VTVoyM9CZqVKWNcCSlLzMDD1SKn8M10PJWywKRL3Suug1+sfRt1YprSEsTsied5ZS8Lk1PNSwtQjjwtVQmYVMgsag6XHkR4kJ+boV29u5lFKGCGEEEL2FbujJUxI1Vg7OrqaMazqQnd3DSpzClBfWIaU7HJFjjyTdYhMzsJccPZrQ0cK3vzsa6SW9WG0tRRh91IxE7Qoh7YN0Q9KYQ6uzOyb7sT9glTIyRGHm+7h1M3bSEpOQYqQvszMDCSE3cGV0Npliz/vFJQwslOsJWGzQsLuxBRheOzRDKVerxepuXUY1CyfMVHicrmFuBVxinpCCCGEkKXsBgmz6PsRHnIb2XmpiEiKQXFuGcbUakRfOI+MKjV0kxPQjWtRFnUVMSWdsM67UZcXiejiBgy2F+HW2Zton5qXfQ+h0+mgnxhFcdx1nA3NhHHeB7+pA1diriMzNwvffP0Jjl28irS0NKU74p07QsDOncInn3yFq3F5sHvXJ4/bASWM7BRrSZgc3xWTVomk7FqMBWdIlBNxPDlGbJFZix3F1Z24GVUg/pbIhdc3DiWMEEIIIfuK3SBhlaU5ePmtd3Hi1Bl8feAgurt74bPL8WH5OC7qjh49gsNHT6KyIBk9o2p0q7U4deoszp4+ibdf/wUiU7KU/czMzODcuXM4fOQYThz9BqfErWbWg3nzJA4e+RpfHDiEAwe+wf3wcOWizuPx4MaNG/jq6wM4cvgbnDt/Hk7Xzo8Mo4SRnWItCZNoJ0xIy6tHc8fTZzocHTcq09MPDG1+EXRKGCGEEEL2FbtBwpwuNyyzszCbZxSRcjkD/7Iu/5XdLMqybmZ6GgvOQIdBr8eNGbNZqZ+dtcC1EJgQQHaNMgfrp2fMYr+B/cjGLbvdoexfPm6zPfpX+bm5OaVOxmKxrDjF9rcNJYzsFE+TsEWe5ddkK3+TKGGEEEII2VfsljFh5BGUMLJTPKuEfdtQwgghhBCyr6CE7T4oYWSnoIQRQgghhHwLUMJ2H5QwslNQwgghhBBCvgUoYbsPShjZKShhhBBCCCHfApSw3QcljOwUlDBCCCGEkG8BStjugxJGdgpKGCGEEELItwAlbPdBCSM7BSWMEEIIIeRbgBK2+6CEkZ2CEkYIIYQQ8i1ACdt9UMLITkEJI4QQQgj5FqCE7T4oYWSnoIQRssW4XC6YzWbMzMwwDMMwWxyHwxH8a7v3oITtPihhZKeghBGyhUgBMxqNmJubg91uZxiGYbY4JpNJud2LUMJ2H5QwslNQwgjZQqR8yVYwQggh24O8QJAithehhO0+KGFkp6CEEbKFSAmbnZ0NlgghhGw1lLDloYRtHEoY2SkoYYRsIZQwQgjZXihhy0MJ2ziUMLJTUMII2UIoYYQQsr1QwpaHErZxKGFkp6CEEbKFUMIIIWR7oYQtDyVs41DCyE5BCSNkC6GEEULI9kIJWx5K2MahhJGdghJGyBaypRLm92HeboebX66EEPIQStjyUMI2DiWM7BSUMLJvcOnakFnfGiw9K37YrVZYLJaHsc7Z4fV5go+vj/VLmBezJj3MC4HX83o8cIt4RJz2WTTX1GDIbFPKMvKxxe9a26wBYxMGLDtSrwMjqkFMmNZYR8c9j8mxMdg9/OImhOwccm1Fm80WLD0blLDloYRtHEoY2SkoYWQP4sP4UBfy83KRl5cXyIN8RJ3/EP/8P/wnXInJUeryCwrENuK2shYjVhcsY83Iy8lCUWk5KkoLkJVViO72ZsRcuoDjJ47jyJEjSr7+8C28/skpTLiCL7cO1i1hfjcm+5tQUd8GnUV8jrUaqIeGoNGI28F+1FZWorVvUClrRL16aARmh/JEaLsb0NyvV3bzEK8bmu4WVFVWoKqpE9ZVJMvnnEVvYzWae0bg8QUrCSFkm5DSJP+OdXV1KbdyseWFhQUkJiaiQPytXg+UsOWhhG0cShjZKbxeShjZc1hx7O1f4iefXUFSYjwSkpKQGBmCzz58A1cjEhAbHYW4xGTEht1DxP1Q/Px3fhPvJXVgWlWCiIhwHHjr5/jOTz9FWGgcmgdMGCxPR3F1f3DfgLE5Fa+8cxvGDcjJhroj+pwY7W9D/6gJC/ZpaFQqRcQUCauqEhI2gCFZVqswPG4QvxxzGNf0o6mmCs1dA1ANqjBpmoPf78FIbwdae8fgFrs1DnWgrXsE7tXeh9uO3pYG9I9xDBshZHuYmppCZmYmQkNDERMTg4SEBNy7dw+xsbFKnZQwh0P5l6VnhhK2PJSwjTNjtmB8YipYIuTbw+XyUMLIXsOO7LgMPKhRYcxgw6x+Cia7Dw3pJ3HyXpmyhdfUjbiQKHQJsamMjUZC7ZBSL1uQwg+/i/DaR//qFXXsIA7fbwqWgJp73+DN82liy6UsoLdeCJHKECyvzGbHhEmRWhAffvkvxHbLNBqFhKnEF7QsK/Uut/iy9cJqUKO2vgOztgXxy+KA1aRHV2s9yirrMTSuh16vh25EhbrKMjQKEVtweYOv8Dh2gwpVNa2w8leHELLFjI+P4/bt28jJyYHZbFa6HRoMBhiNRty9excRERHo7+9XuoGvB0rY8lDCNo5LfK9qRiZgnVtft1hCNoPH68WYuF4zmszBmt0DJYw8lXufvo4jYaWIPn0C51O0Sl32nVO4eO4iDrx7GFWDGhREHMMXd0qUxySm1ii8/sYBPFIpC24fOoxbBYHni18LxB54A8fiHklZgGnc+Oh1HItqCJZXZr0SZjNOYKC/Bz0DGkzp9BhWD0KtHsKQWg3V4ACaGxvR2S/r1BgaUmNgUA3j7DzmJwbR1N0FtVYHi/gFVon7o7oZWMXFzKx5BkbDFKbExY688JmcGBbPG8X8Cl/SM0MdKCgoRIfG+IR0EkLIxpGSJAWsoSHwN7O3txcpKSlKbt68qdzKf1wqLRV/w6OjhUQ8e9cDStjyUMI2x/yCEyOjExjSjDPMt5AxqEWmDDPw+3ff7y4ljKyJpS8FP/reS2iYWUDepYu4k96PztosfPPuT/HRjSgM68bQPNQJy/QAjn/wJu5WyubeOVx7+7/j3/7wV+Li4CaSH1SIiwADTh35BeJap5W+uV7nOL567ScIq5wMvNBD/PC63fB4175QWK+E+bweuBb0aKxvxJjBAbfLpUy+4XI54XS6lH8pcSv3nXCL15ePe3xOqLvaMTDaj66ubhjnIPZhhm58ApOTInoD5mV/RAU/zAY9pq325ZLlsaOrqRG9fZ1obu+G1cXBYYSQzSP/lmZkZKCkJPAPYFKY4uLilG7V8fHxSgvYzMyM8pi8vXPnDpqbm5Xys0AJWx5K2OaRF8Mu8T0rW8YYZrsjJ1vbrVDCyJp0pl7H+bhauAyjOPbyH+Bff+dFnLl6CQ2DwWbdyXy89NY7UInP+ExPPpKqelAV9yX+wz//xzhwLRnFydfw5s/expDZisjTr+L1D7/C4cOHcfjg53jlZy/hJz/9CQ5HFGDlTnyrs7HuiGa0NbdAZxES5LJhsLsdPf0qpfXrUVTobOuE1jIvzG0WLXU16FEPobO1FaNTszBMdKGhZQgWixmdLU3QTJowPqyBwTyNjrpaqPTLu/vY9SrU1LfD5vJguLMRPSPTwUcIIWTjyHFgcrzXYjfD7u5upeUrKytLGRMmuyMWFhYq/7gkqa2tVcaLPWtrGCVseShhhJCtghJGVsXvccGmH0LYrSu4cvwcrp86gD946Rc4fukWYqLuI+TSeRz45H1cDCvCw+Hefhvaiipw+6t3EV80LD5hfTj97sdQrfKRyQt5B9/57LYywcV62JCE+WceSZjDhMaaamhMDuUC5WEWHOisrUa3Xkim14mp8VEMj/Shob4BAyMTGNP2oqmpB1rtCFrEl7xWbxQyJ6RtyoTe5kYMTT0hYT4n+ltr0DYYGBvnmh1HU2M7LBuYEZIQQpYiJ9qQUiXlSiLHhp0+fVqpk7MiNjU1ITs7W2l5kOIlJ+eoq6tTtn0WKGHLQwkjhGwVlDCyKjZNPUIuh6GorQ8Ge0CTZsYGUVeeg/i0dNSLL/imLhXmVvhH1fyz7+Nedj9g6cCZDz5DdUcHigtylXFR8l9mCx7koaypF2m3vsDb5+PWPU5qMxKmt4r7zlm01laitScwDuxRBlFfVY3+qUAXngAO9La3YVhnhn6sG60dWthsVvR2tGNUSJi6txvjhpUlbFZIW3VjB+wPpcsDbW8LWgcmODaMELJp5ORA4eHh6BB/Y2XXxNTUVExMTCiTdMjZEuXfSilhsiwlbD1dcyhhy0MJI4RsFZQw8lTaCuJR3KgLlgD7QAzeO38Zj+Y3cqI8KRTFrYvTcPiQc/o9XAovwVjnAxx5/1OU1VUi9v5d3L8foYxTuB8ehoT8OkRdeAcfXEoKPk9iRc6960isUgXLK7NRCWtvbcWYwQqTVo2mhnqMmByBGREfxoHuhjr0GSzwuewY06gwqOpGfX0jBobHMTrchcaGLgwPD6G5sVlpCRvo6lBun5Qwj1WPhupaDE8//vvinxcyWFePYdN8sIYQQjaO/BI/duyYMvGG1WpVWsF0Oh3kAs1S0uT4sKioKKV+PVDClocSRgjZKihh5Cm4ceu9P8BXN9uCZcDSfR9vnjyLR7rhwJW3/hCn4waCZT9yTr6DF154Ewc++SVe/NM3MbrKoK97n7yEL28v7R5jQdL1s4gofbSe2EpsbEyYBV1NVais78CIegTtDdVo7R6ESq4XppazIg4pMyM2VFYJCTPD7/Ni3mGH3TaB9rYuzLqBBfMAWjq04hfHjv7OdozoZjA1OYHZOQt6mhqg1geOyTNnFKJVg77Rlcd/zRmHUFvbhElHYKwGIYRsBNklUbZ+SdGSwiXHgt2/fx9paWmIjIxU/tGruLh43WuESShhy0MJI4RsFZQw8hR8yLn+Gl74+a9w5MgRJV9//Cp+8NOf4+tg+ciRT/E7/+rXcTFF8/A5RSHfILl0RFwhDOD6waNQzwUfEozX5OHM51/gy68+xXvvnkGnbv0XBxuRMI9lHHXV1dBMOeC3T6NR3B+bC36h+jyKcDnsVrTX10NtkH0WF5lBe3MrDHYpT91o6hgX29rQ09aMYb0dHteCEDW92F8thk122GZ0aKmvRe+IaY0uhz5MTw6grq4Rw1NWeDhhIiFkA7S2tipjwGRLvux2KLsiyjXBOjs7lX9cWu/aYEuhhC0PJYwQslVQwshT8XmdsMyalMU/lQVApy2wWa0wBssGgxZ5sfdQ0fHoy9rrccOrfFn54XG7xcVBoF7idszBqNdDP2WEY4MTVGxEwhxmEyZ0gWP0O20YGxnB7ELAfhbmzBhWyxYxkVHdkqnnBX4HJscnYRPH6nIYoBUXOVqNBurhMdjcHszotFCpBqAemYTD6YdBO4Qx0xLrXIM5kw4qzRiCQ+4IIWRdLHal3g4oYctDCSOEbBWUMLIn2Vh3REIIIc8KJWx5KGGEkK2CEkb2JJQwQgjZXihhy0MJI4RsFZQwsiehhBFCyPZCCVseShghZKughJE9CSWMEEK2F0rY8lDCNoecPGbKMI3hkQloROQtw2xX5GdsVKuDzb47lwSihJE9CSWMEEK2F0rY8lDCNo7P58PYxBR0eqNyHelgmG8hsxabkLFxzNnWPxP3dkMJI3sSShghhGwvlLDloYRtHIt1TmmVIOTbxm6fV1rGdhuUMLInkRJmNpuDJUIIIVsNJWx5KGEbxyjO/6TOGCwR8u3h9fowpBkLlnYPlDCyJ3G5XDAajbDZbHA4HAzDMMwWRwqY/Bu7F6GE7T5M05QwsjN4PF5KGCFbidPpxPT0NMMwDLMNsdvtwb+2ew9K2O6DEkZ2CkoYIYQQQsi3ACVs90EJIzsFJYwQQggh5FuAErb7oISRnYISRggh5LmhVw+ktgMpbSLylglEnI/MLmB8yeSulnkgu1s81vrEtuuN2HeO2E9eT+D+its8a8SxZIvjtO7Rr3tK2O6DEkZ2CkoYIYSQ54L79cDf+wL4M68yy/JLkdeBf3oUqFQHzlfbOPAXPhT1Ly3ZbiN5BfhLHwF//VNx/+UnHltvxLH82gdAx+6b1fmZoITtPihhZKeghBFCCNn3zM4D/+Cb4IX8e0/J2yJviLwp8m6w7nnIr0SEJP3mVXFx4AN69MDf+UrUyfMhH5Pn41kjn7O4X3EO/+7XwP8qz/87S+qXRp7npc9fbTux3//xS6B7jy7rRAnbfVDCyE5BCSOEELLvURmCQvHWExf1T0bIl7zI/4PbwL86C/y590XdVoiYlBiZlR5bLfK1pQxKcXzW527kdZZGnJ9/eAiYtotzJq5LlXMmpEi2iL0UDVwpA86XABdEVrq9VAocfQD80+PieYsitpqELR6r2E4K8qkC4KJ4vtzHvz0fqF/2fihhK4YStnEoYWSnoIQRQgjZ90gJ+38KEVhTwsRj/+4cUD8CFPcDXZPAh6mB+k2Jjcxqz5eiIVt+VnpMvO73QoHX4oLlZ5HBzR6neM1/dAQw2JZI2CvAvxFSJMdhXRYSdigbOCmE6ZiQrWW3eYExW8lt4nmLLVorSZg8Tvne5bl9HfhfDgAHc4DD4vlHRP6vU4F65fGl558StmIoYRuHEkZ2CkoYIYSQfc+aEiblRrY2CdmQ8nC6EPgrbwC/fwsYMgF/W44j+7nIarK0VoR0/I3PgLjmoEzJli1ZL19TSMb/fBD49xeAP/eBKEspkeIRPBZ5+0Z8YIKM3w4RZXkMsv41Ebmd3F5KjYw4tr/4ERDVCLyTGHx88TGZZ5UzcX7+sZAw4xMSJl+/dBD4a58Cr0QD/6/DwI/uCWETty/KW/GcH4vbfyhES7aEnSsG3k0C/h+fiOeL43xMwkT+ljincpvrlcDNKuB2DXBelM8WBepl3d3aQMtbqHjs/zgR2A8lbOVQwjYOJYzsFJQwQggh+55VJUzI0P/wuRAGIS736oFW8X34/zkp6l8OdEV80AtkdAJ3hCz8npAyRQSWPv9pEdtLiWsfB77JEWUpUCJ/TtS/EAq0iNeLbAB+TUjS/30euFgSEJMbIueEkEgpGZkBmkbFY0JO7lQHxES2GP1fp4F/IN6T7Mr3Dw4A/+9jgeO/Wg78ffGa/+BQ8DGRvypl6FlEbBUJ+61rQLo4D/9VyFiZkLH/U0jRd28Huh1+7+6jWylL37kO/P/OAeWqoDwJIXxMwuQ5F2L6lhDM/qnArInvi/MvWx0/SAncyrI8D3orcCw/8P6U51LCVgwlbONQwshOQQkjhBCy71lVwoQgyBadCjXwZQbwfSFGvybrpbAIWfg3QiY+FlJwtSKwzd+QM/ytR8TEtrLVp24Y+CRNlIWA/eAOkNQamBL+D4XY/RXZCiZeT8raPxci9V5yoPXrB2FCtERZyss/FjIkuwJKOfr1K8A/E/WypelmsCXpunhMyqKcUENrBm6JusXHpND93xcDx7LiMS7NGhKW3wf8E/G6//GCqJNCtDjT4eLsiYu3ov7PCoGVz1k858u6I8pj+SUQIQT0h+HAfxD7/FtChn9bPEe2HP7WVXEuhGRKCf4rUiAXWxApYSuGErZxKGFkp6CEEUII2fesKmFCGj4SkhVWK+7LLnxSJJa2GElZENvIrn4NI8C/OCPKcjvZnXDpflaLeD3Z0iZbhUKEyMmWrVvVwHdviMeCXRIVMQlKn5S0vyYkRL7WTyNFWYqOFJA3A+ub3a0JbKO8D3ls8lY+LkTpSjng8gbkSTlO2XVRPi6zjuNdTcLkmmFy5kTZWvXnxLb/UryGbP36npDK7wYjJfbfCnH9s+Lxr7KCY7vE8S2TMHk84j1HNwW6acpuoK/EBMaT/Uy8byl8P74P5PQAf18+b1EgKWErhhK2cShhZKeghBFCCNn3rCphQhCkYMjufkX9AalQLviXipgQBilhxQOBMWKHcoA/H6x/bF8r5M+KfckWrlqNeF6uEArZkibHlkm5Eq8hW4yksMgoz5GvK54juxQWiuP5i7JOSOD/V8jMmBn4zk1RXjo2TW4vRE6KS6MQN9laVzsMJLYE97koL8+aNSRMtkrJboi/fRn4Sx8E3k+8eB053i1WRN7KvJUgXlucm/8uRPN/lt0IxT6fJmFyLJt8D7KFUI4tS+sAXhC3uZSwZwolbONQwshOQQkjhBCy73naxBz/5HCg5UkzDfw7OT36Yve3xQhh+HtCSL4vJK1eSM5bcvILKUNSgpZutxixzz8vROVtISRykeipuYAchQi5KhkMtPzILoO3qwORrWOyq59yfGK/Urq0M4GukrJ1LkHITqoQE6Wr5KL8ySnsXwP+06XAcf9pBJDVBZwtDmz/dbZ4XL6P1Y5xpawhYbIl7L8IAZMTf8iWMNkq9qZ4f3LykNeDkedFdpeUrym7X/4zOSbsGVrCKGGUsJ2CEkZ2CkoYIYSQfc+aEiYl5ZciPw+07CizGMqxTU9uJ4XmRwHRkOO5FkVi2XZLIsd7yXW3GkcDUvQ3RLlKE2hV+oviuX/9k8AYqL8u8mtybNjic8VrScFpE9/P4XWBVri/J49/acuWELD/RQhJjxCSS2Vifx8Guj1+kQn870KkpES9HCO2k+9lUdyeljUkTB6zlMPvhIjXEsf6STpwpyYgkDJSJmV3yTeFjP1Z8d5k90RFvMQ+KWEBKGG7D0oY2SkoYYQQQvY9T2sJkxNu/MYVIT3jgRYeZazW0m2EMPz594WEHA/M5ienYVf29RQJk9tIyZKtYJ9liPIvgH9zNjDj4Z/eF2U5bkuKyVJJkmVR/zfF8+TsgZIwIWJ/TtbL8WByW7Hf/03InTxeZTyb7N4oBEVKmNIC9oJ4P5eAYfE6cqyVIjFPO1YZsd+1WsLkBB+viv3JFjk5W6Rs7ZJj6mQ+FVL23+RYNyGQvybO1a+SgP9DLtrMlrCHUMJ2H5QwslNQwgghhOx71hoTJuVLyotsUVIEJigID7cRZdm1UI57UpsC08T/zY9F/aJQrBUhDXJ2RLkA9AdCVP7MT4G/JPb3SiwwJURH6W4oW6qkZMhjE/L3P4rtf5UIFPQF1s76QQhQIY5PjhH7cRjwl+WxCRmTx5PSDvzRHeBMHnCtAhifDczEeKEQeC8+0BImj1kZ6yb3/wzSuJKEyanp84Njwv74dqAlTEqXbP2SMzDKyFYx+XpyPJiUMLl+mFxPTHavfJqEJQr5eikayOwEfhIRkC95bihhzxZK2MahhJGdghJGCCFk37OqhAkB+jBFCI2Qgb/6oSjLbomy26Ec77UYITx/SUhXixb4ddlKJuukFMgxWUv3tVLEdv+DkCopeXLdq1eFfMWI1/pr4rVeEEIlp5M/I4Tp734mhOUAcETIlJwg5LbY9l/JGQ7la70M/BUhLD+PDHSDbBZCJ7tEylY5KTxy4o9/cQr4j5cC64RJSfwX4rF/KsdjicelACky9TQBk1lJwsQ5ket+yTW7pHT9KFTUSYmSrYXy+BZv5XmTEfuQE468LKRKGecmHltNwmKESEr5kvIrx+LJNcHksgDHxe1/uBiYJfF/PSS2pYStGUrYxqGEkZ2CEkYIIWTfs6qECcF6NQ6oGgL+6zXg928FWpaW5vduBmb8axIS9neEACzbx1oR2/5PQmS6hDTYnEBEfWCNL0VWhLz8cyFLN4XY5PYGJrZ4VYrLUfGY7HYoX0eKk5Q9KS9SdoS8yFatX4jt/trimmVBIZIzOLZPBKROkUn5mHz+4jYrHd+TEa+5TMJE3V8Qx/BSVGCh6I+SA2PY5Ln4K0JO5TbyVr5PuSj03xX1su6b3MCC0atKmIhc2+xUQeA8yAWfpXjK238hBPJPhKRKqVR+bpSwNUMJ2ziUMLJTUMIIIYTsewanAiKwTKCEFEhhCK0BsroDLU1yhsHHIupT2gLd5uSU8489/2kR28vXPS3ESE7Z/rCVbbEVTZbFNn/vQECiFHl68hiXRkqVFLQnJ9sQ9/+yECE57kxOiPFQWtYb8dr/8DBgmFsiYXJf8nVfAf6ReEyK029cBU4KeZKLK0uJ+u2QQPm/XQeOPQiIq+xi+He/COxzmYTJ/Yn6X8YEuk9Wq0U0gSn25W2luJXLBsjzppxzub18nrhPCVseStjGoYSRneJZJMxmX8CcbT5YWp0Fpxtz9qdv9yxQwgghhGwZco0tefGuCNBS6ZCRYiAu7qUE/YUPl0eRIykBsiXqyec+S+RzpTTJ116UiScfl8ew0mPriXy+FLSV3uOzRrzH//14oNVuwLBEwhYfF7L3l8T5kML3t4MtYbI75JO3skVMOW/yfYnnLJOwxYh9y9eQj8mxX4/loHhcvqel54UStmI2K2E+twOzdrGfYHlFfC44HJ5g4RE+rxtPvrrf7cT0tBXeYFlsJS4kbXCt+QI7AyWM7BRPk7D23mGExhWhpqk/WLM6mtEp3E8qQ3FVB9xiv5uBEkYIIWTL8IqLP9m9TWlpkjL1ZKS8yMdWi5SolZ63nxJsYTucGzhn7eNCtqRIyZkXl263eD6e5VZuL+5LOfubny+pW4x8TTlDpHyNlSL3s3R7USen4u+YDBzjXmO3SJjPYcCodgCLSmUfq8SdglzYgpLkd5jQOmJ4Qq4WUFmcj94Zd7AMDNVnI7ehJ1h6xOxQHW4nlmHO5cTCghNO2wQS01LQPGaF0ynrFuCRv5S7AEoY2SnWkjD52N3YIlTU98Ix7wzWPkK2kJXVdj9sJXO5PVAP63ArugA64USbgRJGCCFkS5EXlBdLAt31mCdyG/hheGC2wkXMDuAXUeKxm09su96IfcvJN+TYu+/eeuKx9UYci5zKXrZs7kV2i4T5nQbkxd1AZu2QUp7XVuB2fg7scjc+Owrv38b1uAa4RHFap0F7eye6u7uREXkNx26koqurC21VOTj19VeIzK1GR0cHOnv7MbsQOI6+sjQU1begujAdkdGxiI+9h+MnTyIkPAbx8fGIjLyP+p5RZdudhhJGdoq1JGzWakdoXDFGxgzBmsfpHRzHlfCcxwTN6XIjLL4Y/eqJYM3GoISRPYlVfAQvlQbGZXydxTDMboqcefBEQWDmPWblyHFdh3ID5+tgdmB810rbrTdyP1uxL/kzPFtECXsyG+mO6J7VIvpGCGoGrHAb63C38AGcvgXUJUYiNK0WjuAuJwabkZmehuSkZKSlpSM1JQWZuXkoLCxEYVExSktLUJCXi/ySKkxJi3MZkRGfgQGDC36vG3brLMwGFe7HRKFyQA/zrFVcLHrg96//mLcDShjZKdaSMMucQ5Ew1fDKzf7xGdUoquoIlgJID5LdFweHNtdVgBJG9iSdeuB/OoDAGAY5uF6OzWAYZvdE/l4ya2c3n6/3gD//ERDbFvyju8fYbWPCbPpe9AyY4TI04G5xAZxOGyoae/DY8H6nHqnJMUjKzMOD/HzkZiYhITYV8z7xflqyoREvPd9ZjraWQMvWbFcBDt1IhEXc17Yn4GpoKFJSkhETG4uE5BTEhoUhLK4Zjzo17iyUMLJTrCVh8vf6dnQhhrXBFfuXILsbXgnLwaDmcdlyuTyITq1AR+9IsGZjUMLInqRhHPgbXwP/8nRgLaDsLoZhGGYrImdl/N3rwK99DFyvD/7R3WPsFgkzqJsQFxuD5JQ0pKYkIeZeCE5euYyYhESkpaUJyYpEUnoezHJ8/2wf7sSnoHfMAKPRCMNYJzJvhGJy2oqc/DtosvigL01AUVEX/H4PiqJO4K3rCXCIp6rr7+LE9RtCwtKQkZGB9LQURN+6gYu3qrB8lMvOQAkjO8VqEmaaseJeYikKytvhdi+fDKeqsU95XI4De5Ku/lFcu5eL3sGV5e5ZoISRPUmjkLC/+hXwG5eBheW/G4QQQjaBnNL+z3wA3GgIVuwxdouEeVzzsNpssIvY5K3DCY/TBbs9WGfqR+aVGxiRJmVT49btEEQlZSAzMxPpSRG4c+U2pix25BWGocXqw1R5MsoqBmHRq5FVEIu7eamYEQLX3xiJyMpmzMzMPIy2rRq37tdht1yxUcLITrGahJktNsRnVqOwol3ZZimyK68c95VX1hqseYTs4tvQNohbUfnKbIkbhRJG9iRSwv6akLD/fAmYmgtWEkII2TQeH/DzSCFhH1LCnsy6J+ZwOaAf1kAzPIzhFaLpq0PK9bsYk/0SrQMIS0hBx9A4xsdFhlqQcTscOnHMuQWhaA5KWElJN9wL81iYasW9B0mYFj8vTUM4Tl4LQUJCIhITZRJw/0YIrtytUSb92A1QwshOsVZ3RLPFjrC4YoxNTgdrAozrpnE94oH4uyE7/D6OnKRDjgnr2UQrmIQSRvYklDBCCNkeKGGrZ90tYZZJVGdkIC0zE1lZWcsiW7tuX7qBCdlnULaE3QlBVHKG8lhGSiTuXLmFKfG6eUEJM1SkoLgoOEmAuRthuYmYDraERVW1YnZ29mHGO2rYEkaIYC0JW21ijuziJiTn1Ip7y3/npQdxYg7y3EIJI4SQ7YEStno2OjHH6iygJjwCo3Zx19KH+zllkHcDzKP8biRGLF7MOwO1k6UJyC8ISJh/uhNheUmQX4G6jiicuXUHaWkZSE9PR2ZmBuJD7yDkfouy7W6AEkZ2irVbwmzKOmEj44+mqPd6fYhMLkNLlyZY8ziu4BT1mxkPJqGEkT0JJYwQQrYHStjqWY+E+XwL6C7MRVxMHBISE5GcnIzU1FTlNtBlMBFxkTdx5fRljMuWMEs/wtPzYXR6MNFbjKjwG+JCrwp2LzA73IOMqAhcuhKC6h5dYP+mdoRlx6CxowU3Ln2D4yG3kZSUpOxfWSPsdgi+PngByRVtmN9qd9wAlDCyU6wlYXLNr/CEEpRUd8EaXJDZ5/NBN2VecbIOp9ON7gGt0lVxQj8TrN0YlDCyJ9lSCfP7YJmZwbx3F3xLEULIDkMJWz3rkbDGxnp89NYbePedd/Hqq68iNzcXWq0W+fn5ePfdd/HOO7/CW6+9hEtnLmFO7HZidAiHjx7DqTOn8eUn7+BuWDjMCx5YzGacO3EE77zxBt7+8HMkpKQq+7dOqfDRl+/jo8++xNtiX5fOn1PGmY2NjeHYsWN4S7zuhx+8i68On8C8a+dHhlHCyE6xloRJ5FTzclxYbfNAsGZ15EQc4fHFqGro2/QafJSwfcTC3DQ86/w8uBcsD81/VeYGEHbzJjRy9qYlDNen4WZ4Lh6fT2Z1FoTo2Be2ZsWS9UuYF8bJEejmAp9d57wDdrsDDocDc2YjGioqMCA+27LscNjFZ3we7uAbsxjHoB6exJP/HuJzWdDf2Y6hydlgzXL8LhuGVSrMOsVVDSGE7AEoYatnPRImp5lv7+xEX18furq6lNkRJXa7Hb29vUp6enoxYw78a7rNZkdPdzc62tvR1t4JgyHQPcrpdKKnt09EbN/dhREhWhK3uLBUq9To6uxCt3je6Ghg/TCJlDFZ19PTg8GBfuVf9ncaShjZKZ4mYRI5c+n8/NP/sUJOV2+zb40HUcL2CTPdKfjtf/2PcSy9N1jzLPiQevpVfH6+YIVhh49oCH0X/9u/+m1ciIhHfFwk7kfkY1Q/ieOv/Uf8+x98hJiEBMRERyLsbhRKarXBZz2OZ7wCf/xP/yF+EvIgWLM51i1hfg8M6naUVzdg1GSBXquBSnx5qdVqqAb6UFtZida+AaWsVqugGhqBWemC78FIZx2aB6YeO0c+lwN9bY2ob2hATWMrphdWVlGfywp1Wz0a2gc5lT4hZE9ACVs9Wz8m7PmBEkZ2imeRsJ2AErYfmBvE1y/+Aq989BH+5JU30Dj5rF8SC7j79k/w+eXqYHk5ww3J+OTjCyipKsDR97+Hs+HJKCxuQtbN0/jsxE2k3Q7Bhy8dQ1Z+MXJzCtDSvcJ6Cd4JHPjwNbz8zUH88vWXUDoY+NfAzbCx7og+6Ef6MDRuhmvejGEhYUMaDdSqftRWVaGtfxAaUR4aUmNk0oSFeStGVd2or65Ca1c/+vsHMG60wuOex2BHCzrVgX+ltGh70dQ2AMdqjXw+F9SdTegeNgUrCCFk90IJWz2UsI1DCSM7BSWMbA+OUVx54UV88FW20i2wLuYzvPrmVUw+y4/Ip8Phn72Ec4Urz/4yP9mMix++jsiibkxM+6Cpisah+BI4Zgfw5YefonJUWIdNg2vffISsjtUGJ5qR8N57eOOLeMhOjz0JR/Hijw9D85QekE9jvRLm9/vgffjl6YfX41a6eMg45mbQWFkJ1bT1YZ0cqOn1+TA/rUFdYzfmFjxCvlywTI2htbEGFdWNUI1qoR0dxejQABqqy1HXNgir3bliq6LdoEJ5ZQOmbeyWSAjZ3VDCVg8lbONQwshOQQkjW45vWo2LP/o5Pvg8Ao9GJc0j9eBnePedMOifGMP1JH5zI37/3/1rfBhSE6x5HPecCVazS4jeOM4d+QhJTWrU5d/FFx++hV++9wmOHjuCw0dP4OBnb+HVV/4Ub54Oh3Fpl7t5I6K+/gTvvR6OqYcfGReyr3yDVz68gbEVj28GoV+/j7MJa0+ru14JmzNOYKCvE22d/Zgc12FYNfCoO6JqEJ0dHegdGHzYHbF/QAXj7Dxs2gE093Sib2gU01MzUPf1QW+2Y2FhHnabDRaLXI/FIn4nHJgxTYh9jWJ+hS9p42AbigqL0KrSgRpGCNnNUMJWDyVs41DCyE5BCSNbymRjJt5+7y0cu1YG6TLeqS5EnojBoGJjDpTcPYZPDx5Eff/ylb4XmWoKw3d++5/gT748i8lVxiJaR6uRlFiOiYkeVA08WkPhSRaG0vDagc+hCrZwLYx24MjBD/DJjcIVV+tviL2KTz49jvK+x1col8femJ+F8g5hWWuw/jFhfvh9JjQ3NGFi2qnMaOPzeuByBVq+3B5xP9gKJgc7++T2cGKgow3qcbUyWNokTrTXNY2RIQ1GRkagGdbCOr+oVB5MjWthmluhic9lRVtDI1RDA2ht7YR5/lmnMiGEkG8fStjqoYRtHEoY2SkoYWRrmDciL/QiPvjlm0hsfjQTkqU1Hr//t7+PPI1cbETixUhTEk68fQjXYh/AsEKrU86lr/Dehbs4+9U3yGo3B2sfR114HD/68TFYxf0F0wjycrIfrvSfkZ6BotpmWDyAezQH7x0/gjGn+EDlhOHjV75GdOUA9FMj6H9iFXLDUB8MZgtGqxLx/sEvcC2uCsKL1sWGxoT5Z9DW3AKdRVxhOC3obmlAZ58q2Pq1GBVahKgNzdjFKZxFa10NOgcGxfOahYwZMDHaiaa2UTgcNnS3NkMzYcSIagA6kwmdYttB3fKZEi3jfahp7MK8x4+xniZ0qFcYN0cIIbsEStjqoYRtHEoY2SkoYWRrcEyhrKQC2id+BNbONLz4T36B4tEn2p0WdCgvLYT+0RL8AWZa8O73X0bBqBNDD07jwPXkFbvJDZddwKuvXYSccyLn6q/we69+hYKCAiUPssLxzvd/ghL5uZ7Ixa+EhI3aHGiqKEOXMWBV1ZGf4NWzscr9AH5kHHsdIXHBb3bHGCoeVMO4zo/UpiXMMY2m2hpojHbll+BR7IpM9eiFlPrcmDUZoNOp0STETDNhgn6yDw31nRgaUqGpsRnaKSNU3Z0YmzKht7kRQ1NPtDx67OhuqkL3cEDOPHN6IXktMD1sQSOEkN0FJWz1UMI2DiWM7BSUMLKtrCphK+JH3sVf4cXPQqC4mUOFU2//Anmdy21mUcLkXvNvfYbvvf4lMjMzlaQn3cZ7L76CCtnQJSXs2EGon2hxq0r6Bh9ELZ2W3o/cs+/jTlJjsLwxNiNhyvZOM1pqq9DeN6Ssp/IoQ2isqkbf1NKWwTn0tLVApZ3C2Egn2rrGsbDgQH9nB0Z1Bqh7uzFuWFnC5LT4NS29cD7sgejDpKodTd3D4NrQhJDdCCVs9VDCNg4ljOwUlDCyraxHwvQtofjR7/8MhepH45fUedfxkzfPYuSJpz8mYTc/xY8/Oo3a2lolNeXJ+Pynr6JcDt9SJOwbDD0hYSWXPsKFhPpgSfI0CfPCbNDBZF37M7ZRCetobcXwpAmTmgE0N9RDI54sF858GJsVnfV16DNY4HPaMaqWU9N3oq5etoQZMTHWjYb6DmUyj8aGQEvYQGc7tHrjMgmbN42itroBE5Yn5q53zaGrsQ4Dk7KTJyGE7C4oYauHErZxKGFkp6CEkW3lWSXMPlqJ13766wgrHQjWLLKA+Evv441TYVi6itfS7oi5Ie/jt198F9HR0Uoiw87htR/8PNASNpm3QkvYDC69/T7SG5aOgXqahJlw4b1f4JvYtb/5NyRhmEVnYwUq6rswPjKG9obqRy1hIyPQarUiI2iqqkavbAnz+8UvrhtulwGd7V2QE0XOz/SjtUsnHvJC1d0uhM4Ms8kE+8IcupvqoZ4KdDucN42hsbYOGt3KBzdvGUODeHzYvPk10wghZCuhhK0eStjGoYSRnYISRrYVa0cqXvhHP0XRk01ZSxivisGvfvm7uJLdFax5ArcRdw9/F68cvQWNnG1DoCk5i5dfOa+s8VWfFoLPz9xGTU2NkuqqGnRqZDOYQJeL1w599Wj9L58NmXe/wqvHYjG9dNp6IWE5p9/FrYTVvtk90GuHMSknxliDjUiYa0aLupp6TCrT7k+joboa44sO5HXDapmFZXYarfUNGDYtlaNptDe3wiAOac7Yjcb2EczOTKOjpQkjotLpEF/oJi3qq+swOj0Ps34EDWIfGt3aLV1z0yNorKtH/5gJLk6YSAjZJVDCVg8lbONQwshOQQkj24q1KwM/+2e/RKl2ZQkbKorHW7/9MtLqeoM1q+CdRvz1r/GnPzuEppEFTNSG4M03L2G1P5uzI804f+Y4Drz3EU7GlmNefj95jMi+8QU+PXcf2mUNPX48uPAxwlKaguWNsREJm7fKL+CAGPld85jS6WBzBb5QnTYLxkaHlannx/TTT0jRAkxGE+blLJALZkwZDZgcG4N2woAFrxezhkmMDA9jXDzP6RbKphuD0fps0z0652agHddh/okei4QQslNQwlYPJWzjUMLITkEJI9uKz+2AaXIaC56VvyDmdBPQG5/9Sl+v0sBk84r9ip+/EJfVGmocs1Po6upAd++oIiAKvgUhKaMrrg8mmbeaYXOs3mL3LGysOyIhhJCnQQlbPZSwjUMJIzsFJYyQLYQSRggh2wMlbPVQwjYOJYzsFJQwQrYQShghhGwPlLDVQwnbOJQwslNQwgjZQihhhBCyPVDCVg8lbONQwshOQQkjZAuhhBFCyPZACVs9lLCNQwkjOwUljJAthBJGCCHbAyVs9VDCNg4ljOwUlDBCthBKGCGEbA+UsNVDCds4lDCyU1DCCNlCKGGEELI9UMJWDyVs41DCyE5BCSNkC6GEEULI9kAJWz2UsI1DCSM7BSWMkC2EEkYIIdsDJWz1UMI2jpSwiUlDsETItwcljJAthBJGCCHbAyVs9VDCNo5jfgGa4XE4Xe5gDSHfDgbDzK78BwBKGNmTUMIIIWR7oIStHkrY5pi1zCkiNjY+xTDfQvQYGZ2EVtzK1rDdBiWM7EkoYYQQsj1QwlYPJWzzLDhdmJ2dg1lE3jLMdsU8a4V1zg6/f3f+3lLCyJ6EEkYIIdsDJWz1UMIIIVsFJYzsSShhhBCyPVDCVg8ljBCyVVDCyJ6EEkYIIdsDJWz1UMIIIVsFJYzsSShhhBCyPVDCVg8ljBCyVVDCyJ6EEkYIIdsDJWz1UMIIIVsFJYzsSShhhBCyPVDCVg8ljBCyVVDCyJ6EEkYIIdsDJWz1UMIIIVsFJYzsSShhhBCyPVDCVg8ljBCyVVDCyJ6EEkYIIdsDJWz1UMIIIVsFJYzsSShhhBCyPVDCVg8ljBCyVVDCyJ6EEkYIIdsDJWz1UMK2F/0M0K4BqnuAyq6tTX0/MDAG2OaDL0bIDkMJI3sSShghhGwPlLDVQwnbelxuIUndwOkE4M2rwI9OAn/4DfB7B4Hf30Dk875zAPidL4Hf/Az4L5+Ia4WPgf/6BfDD48B7N4GwfECjDx4AITsEJYzsSShhhBCyPVDCVg8lbGsZEN/lByOA7x8T4nUI+OMjAVF6QYiYlLH15ocngO8d9uMHx/14/6YfZ5P8CH3gR1Sx+Cxn+XEoyo+fn/Pjd8X1w49OAfcLAYczeDCEfMtQwsiehBJGCCHbAyVs9VDCto7yTuAX5wOtXlKeVpKq9eQHQt7++IgfB+77UNLmw8ycH/4nflwujx/jRj+Sq/x47bIf//VL4Ei0uI4wBzcg5FuEEkb2JJQwQgjZHihhq4cStjVUdwdau753ZGWhWm9+cEzs74QPMSU+WOzP9jPSGvw4Fe9Xui1+EQaIHy8h3yqUMLInoYQRQsj2QAlbPZSwzaOaAF6+sIUCdlx2YfQjo1Z8cNeJbd6PCyl+ZbzYxVTx2fcGHyDPHR6vF06XJ1haHbmdZ4s+KJQwsiehhBFCyPZACVs9u0fC/Mr/nsTjccHtXVlG/D4v3C431q8qW4dPvPiJOOAPvlkuUxvJC8oYMB/uPvAt63r4rFhsfnwW6sd/PwBUdAUryXOFaliH6JRy1DYPBGtWR6OdQkxaJepaBuBd5XftWaGEkT0JJYwQQrYHStjqWb+EuTHS34LS0jJUVFQ8nvJylFbUoFdvCW7rg667DeXFJSh/cluR8vIysZ86jE+LazC/F/11eahXLT43QFtDHB6oTcHS47gnO1CaWACXuG/TqlFTWoqyJfsvKy1BTWMr5tyB7beDFlVAnOTkGytJ1XojW9M+vBkY/7UZWgZ9yr6+CBcXxvIEkecGKVLhCSV4UNqq/I4/ycKCCy2dGuE+gRlcHPNOtHUP41Z0AQzTj//+rRdKGNmTUMIIIWR7oIStnnVLmFOPyOgwZFS1obu7+/F0daEoIwTXiuuDG/thGOhBfU0N6uvrV0gdamtboTMHLgZn1LW4ExKOIaMDpqlJaIZHUJB5DclV7RgdHRXRYmLGArfPB5tZj56abMRcvQ/15CQaIkMQFZ2Lts7AsfSIdHV2oHdgEI6n98jaMCGZW9sK9t3DfiRVbL5tz+3140iUXzm2juFgJXkusMw5EBpXjJExQ7DmcQY1Oly6m405+6MF5lwuN8LiizEwNBGs2RiUMLInoYQRQsj2QAlbPeuWMJcR8bGhiM0pRWVl5ROpQFrcVdwqbw1uvH4s4x3QTenRVF2MhMQE3Lh0FNfvxyMtLQ2pcaE4ceYG+s1uaLsqEXnzEk4cOoX0kmIUR0WgvX0Afe3lKC2vQk11NcrLytHcPoHtcrBZO/Dh7a0bC/Ynx4BfnPNBNbG5VrBFsut8yhpjcaXBCvJcYJmzKxKmGp4M1jxO2oMG5JU9/jsqPSg0rkhI2MrPeVYoYWRPQgkjhJDtgRK2etbfEjaFhORYFLUOQqPRLEtt0T3crWhWNp2eHER3dw/6+vqU9Pb2YkA1JLZTo0/c7+sX9T096B7UQGfSQTPYjdEJy2NjvNof3EObLtif0KtD5tU76J8JFHXNsbgd90C5P5AegeqGPmg13WivzMLpW/dR294Nlca4bRImF0f+6dnARBorSdV6I9cDe/+mD7ZHDRSbomvYh+8eDiwaTZ4frOIDJLsWDo0uX73bOG3FlbAc9AyOBWsCOJ1uRCSXLatfL5QwsiehhBFCyPZACVs965Yw7zTiI6/jbmI2CotKUFJUiPz8fJQUl6Co4AGiw04jRC6YBT80ncXIyspBfl4+HuTmIi8vD3G3zuH06avIznuAwgeFKMzLRVZJNbrUXagqjMHJo3HoNQaly61H0p1I9JsCGuWzDSPnRhiGle9IHyrCDuH9zw+jdECL3rRI1LVNwO/3w6nrQHhGIYzO7Z0asHcU+OOjgW6EK0nVevNHh/w4eH/zXREX0ZuB74vj+zw8WEH2PWaLHUnZtcguasb8wvLBgA1tKqXb4fz88hW9mzuHlNawleTtWaGEkT0JJYwQQrYHStjqWa+EWWdHkVJYiPouFbraa1DT3gWNRoWGhnq096rQ2pCHlJpyzC9pftK2dEKtDVwQGpuzkJpWo9yvz6zC8GOtPgtIuZ+PtslApW2wGDdjs2ANeolnVo0Hd+NhEPv2mbsRHnICd85eQWhqEu5fu4EecRFZX/EA925dwaGTZ3E3MhqNqpXHxWwFPULCZFfErZSwQ5FbJ46G2YCEfRYWrCD7HtnSJSWrrKZ72e+2y+1FZHIZMgsbgzVLEJu29w7jUmg2+lTignSDUMLInoQSRggh2wMlbPWsV8JGOouR+CAwnkTTnoCY1iFxz43svEy0m8Vdlw5J8fEYDc7utzDVgaioGAzOBv7lXVubhsSkUnHN50ZDcQLuxBbi4VrEvmkkhOWiyygLDjwIvYwHdY+6R7kNamSGl4hHvOhpKUVBYQYqkgphmDcjL+w6mruDwmUfQlR+FZb/W//WopoEXjy1dd0R5aQcH932YMG1vp/JavRrAzMkHosNVpDnAoMQMTk74uSU/IV8hN44i5D7eRjXLZ9tVLaa3UssESI2EqzZGJQwsiehhBFCyPZACVs965Uwv9OI3Ij7KFOZoelIQnSTXIfIjszcTHTo59BRlYIHzSNQduu1IS8uHPndjwb7KxKWWBwcp+VEVVIU0poWL/wsSIksRc+4ATXZV3E0PB0zS6aXt2hqER9XA7fPjakpPSaHWpAfmSl0DlBnR6GsqAEtFRUoyYnFscs3kVtShtqmtm2bot5kBd69DvzxFk3MIVutfnnBi9GprZGwwhavMjvivYJgBXkusNoCsyPKtcKWUlTZjoTMaqXL7pPY7IGJOeTMiZuBEkb2JJQwQgjZHihhq2fdY8IkDi3q6iag6s9AYteoUlVSWYKuUT0GBmTLWIDh+gyk5LQHSwHGalORmrJkur6FUYSEXkef/Ed79zDu30xCWWUxktKzMak0Zfkw0FapzJQYF52BvplH7VuusWYUx+Ur94fz4tBQ1w9NVxe6+wYwMqzBQF8vhkbHFUnbDuRCzeeStnaK+j8+7EVuw+a7JMoL7fPJPnznAFDfH6wkzwVmiw13Y4swPDYVrJGfVR/uJZQoCzKvhDM4RX3v4Ma7IkooYWRPQgkjhJDtgRK2etYjYeMjg4gIv4N79yMQdvsubl49gNPhsUhJicNHn3yIQxdu4V74PaQmJ6J5cBhFlaWIzC5GTXUVysvLMaWfgKY6G+euJqKytgZVVZWorKpCvajrULUj4tJ7+MWrr+LAkWtIzSmDcUoHr9cLjXoQGRkZyHtQioqKSkxMBFrWNC35OPnpMRTX1iLi0Me4eOU+KmtqlIlC4uLikBAfr5wrtRCx7aKsI9CC9cMtGhf23UM+fB3uwbxzc61hg+Ne/PiUH++EABZHsJI8F8iuhbIlTAqXlCuJXMB5aEQPxwqTdcjHRsYNuBHxANqJlRdGf1YoYWRPQgkjhJDtgRK2etYjYS1Ndfj04w/x5Vdf4dNPP0FObj7UA/1ISkrGN98cwsGvv8KXX36J1NQUjOjN6O4bxOVLF3Dt6kV88fYbOHfyGMIT0nEroxI3r1/D5cuXceHCRQwOjQFzKtyOSUbIzVs4feALvPrKyzh56hQSEhJw7tw5vPLKK3j11V/iJ3/6Y1xJzFOOp6O+EB+/8wHOXbuBC2dOIz0lWVmoOTMzEx9//DG+Esfy4cefok6cu+1CXtPKiS/+6NDKUrXevHDcj+8fcSO9euMT67s9fpxJ8OJ3vgQy6oKV5LlCCtjNyHzUrtLytZRh7RTuxBQiv6xNEbLNQAkjexJKGCGEbA+UsNWzoe6IG8Tt9oifxbO/nsfjgcvlUm5l97rFeL/FY34WGvoDXQnlYssridV6I7sk/vSUE/W96xcx+fOMKfbid8X1xJfh2LI1x8jeQ86UOGuxB0ur45h3Ykr8LVlprNh6oYSRPQkljBBCtgdK2Or5NiVsP5NSBfzR4S0SsRN+RcReOutEaZv7mX9GtnkfIgrlZBx+/FJcS4w+GhJEyLcCJYzsSShhhBCyPVDCVg8lbGuQvbhiSwMS9j0hYyvK1XoiROx7hz144dgCrqUtoG/UE/xZPfnz8ivjx+p7vTgY4cN/E9cRb14FejY30zghG4ISRvYklDBCCNkeKGGrhxK2tciJOl6/DPzhN4Gp6+UaYhtfzNmPPznqxR8ddOHnZ5w4GesSoudBSZsfNb1AXqMPYXkefB7mU9YYkzMhyjXBNjm3AiEbhhJG9iSUMEII2R4oYauHErb16M2BVrFf3QB+fArKgsm/dxCKJG00soXrtz4HfuNT4L98Iq4VPgZ+8zPg98V+pbAdFJ/vqm4gOBkeITsCJYzsSShhhBCyPVDCVg8lbPuQk2K0DwFZ9UB0MXC/EIjYwiSUAyVtwLBergsWfFFCdhBKGNmTSAn7q18Cv3EFcG1+nUZCCCFLeDVGSNgHwHVK2GOhhBFCtgpKGNmTNAgJ+1sHgP/zOPBNLnCmiGEYhtmKnCoE/uNF4C98wpawJ0MJI4RsFZQwsifpMwB//zDwZ94VeVPkDYZhGGbLIv62/mUhYaldwT+6ewxKGCFkt0MJI3uSBTeQ1wNENwLxzQzDMMxWJrYJSGkDZp6+dumuhBJGCNntUMIIIYQQsq+ghBFCdjuUMEIIIYTsKyhhhJDdDiWMEEIIIfsKShghZLdDCSOEEELIvoISRgjZ7VDCCCGEELKvoIQRQnY7lDBCCCGE7CsoYYSQ3Q4ljBBCCCH7CkrY3sUvTrFf/Gc7QshughJGCCGEkH0FJWxvIc/rgtOFOZsDs+I8T89YH8uMeSsyB4vVDoe4hnV7vMFXJmTnoIQRQgghZF9BCds7zM87YZ6dg8E4C6P8GU1blgiYRakzGM1K5P1HCTy2kZjEfqWQud2e4FEQ8u1DCSOEEELIvoIStvvx+XyKCEm5kuI1N2dXWsOkGPnFY7L7oNfrhdPphtXmUORJP2XClGEmIFLiOeuKkLalZSl9pmkr5hecwSMi5NuFEkYIIYSQfQUlbHfj9fqCrV9mzFpscLncwFNOrRQyq5A2nd4oZGx6YyL2RBZb03hdS3YCShghhBBC9hWUsN2Lz+8PtoDNwjpnX/c5dTjmFRHT6U1bImIyUsbYIka+bShhhBBCCNlXUMJ2L3YhUbIFTIrYRmcstNkdGJ+Y2rIWMRk5/szDCTueSxzzTtS3DqB3cCxYszo64UG1zQOKD20WShghhBBC9hW7ScJ8HjfmZs2YmZlZFpt94WEvPJ9rHrPT00IGHj0+Z5+Hfc7ysDwtHp+1zMMXfI6kV1WHsScacUb6GmB4os7vccFmeXQc1rk52KyzD8tmyxzc3u2VTNkNUcqOnHRDdi/cDDNmiyJiGx4jtjTBbolzNkdw7+R5IjWvHmFxxULCxoM1j5D/TmCdczycUVNvmEVKbh3uJZaKz8u8UrdRKGGEEEII2VfsJgkbzE3AnauhSEpJQcqSJCVF4dLZBPToXcp2Nm0vsiKjEBMfj/j4BCSnpuHmuUM4cf6W2DZR1MUjJjoambkdmIcLo63NqKkqxtUbR3Avuwy1XQMYGe1GY10pQq8eQ2xeJSorKqAaNyn776kJx4WbdxAXJ/cfhxuXruBCSLiy3/i4ONwJOYfM+gFl2+1CTg8vuyHahXxuFqfLJSRMj0mdUWlZW1Gu1hMhYlIOPZuUQ7K3sM87cSemEKphXbDmcSanZnArqgCzVnuwRsjTghN344qg0U4FazYGJYwQQggh+4rdJGHdyWG4duG2kKpUpC5JSkokThy6j9bxla+ppgfzcf70N6jq1cPpDlY+xA19TzvyEu7gjU++wLWIBJR3jUKv60Nu3Em89fobOHc5FdW19RjRTSvPqKsIRUbfo4vGptxCpFU/uvCcbE9HZmVzsLT1yK6HZotNkZ2tmhreaJzB2Lh+a1rDROQ+5JT55PnBbLEjNK4YQ6P6YM3jVDb0ITa9UmnFXcQxvyCeU4Q+1USwZmNQwgghhBCyr9hVEpYagcLSTpjN5icyirg7mWgcefQv7AEW0FWUgZtnj+GbmzdQ2t6N3IQU1PYvHa/ixuhAA4rqanE/5iRuxKVhdGIYKlUrcuvzkJ56C8X5nVC19sMWbNhpqAxHeteYIkN+vxcNOQVIq9QGy36MtqQhu7o1sPE2IC9ipejIWRE3OhbsSSyWOYyOTW7J2DD5fHZJfP6wCae5E1OEweHJYM0j5Fix6xEP0NiuCtYEkPVh8cVQaVZuPXtWKGGEEEII2VfsKglLuINLp68jPjERiUuSkBCOw1+FoWU80B1RYhjrRXLUBVyOfgCdyYHyqvso09pgN2pQmBmPpJRCjFoWMG9oQXJpGRzieDp6SzAqG5ZM9ciqrxMKB2jaS6BzA9bBGuTWNMAuDrur/AaOX7mO6JgYxMRE49KpMzh+/o64L8sxuH7xKJKqepTj2A5k65cyI+KSbl2bRc6UODwyvjUzJQbHhVksW3d8ZHcjP5PtPSOITCmHUXwGnqRPPYGbkfnib8fjj8k17vJKW/GgrA02+8bHhVHCCCGEELKv2BUS5vfB5VyAtrUevf1azM7OYtZiFeJgg9Ui7s9OoammA0N6K1xuB/oasnE3IhW1baPBHQBVVVGonnwkaZqeStwKT8LYjBN+uNDVUIyUtAxkZecgR0Te5uWK28xMpGbmoFljhNfjVib/aKwMQ3LrEBYWFkQcqM7IRVLJYnkBqrokZFW3BV5oGwhImHnTkxksZX5+AZrhMUzqDFsyLkxKmFy3jDwfTOhncP52Jmqa+oM1j5BLKWTkNyAuoypY8zjqUT2OX0le1kq2HihhhBBCCNlX7AoJc84gPysZscnpyMpKR4KcACMmAlcu3UJUfBKSkpKRkZmOxNgoFDb1YGpyFGbrHLTDA2gXF2Ztba1CwkpR3dCsXKi1trVjYsaM+WkD5oJeZpnWYVQ7hvGxMYyNj2NyckK5Py7uy/qZ+UfjWBqq7yFHHRgfJmkvKEN2fWDSDomxOxs51S3B0tazHS1hdocjKGGByTk21RrGlrDnDrkkQWffKOKFaM0+8XO3zDkQcj8Prd2aYM0j5Gc5Na8OBRXtWFg+YPOZoYQRQgghZF+xm7oj+uYN6GjoVboEwjGGO9fS0KY1BaaGV6acn8PizPDTvTU4fvYeCgoLUVRUhNLSMpQWFyn3s+PvIPxmDJR2GpcJhXmZSE3PQqHY9kFuNrKzMpGenoGsnFwUiO0f5OYgPTkJ2c2DSktYU+41nLoRGpydMRkh5y7g9JX7D2drDL12Esnb2B3xsTFhGziPK2GetWAoKGGb7Y4ony/DMWHPFza7nGRj+cQc7T3DyjT0LtdyyVLGkcUWQr3KjIrPCiWMEEIIIfuK3SRhI9WxOH8rG8r8GP5phF69hbsxSUhLS0NyUiLySqvhCO52qqMRMVlDgcKTzGtQci8JM/K+zy0EzgSTYQINDZXoGtFDp2rChXOJaFcPorasAoPjJkybjDBYpVTYUHLnGkqaNZiamhLRoTAhBZFZLZicnFTq2kqikV3XLfe+LSzOjmjcwtkRdTrD1o0JE5H74OyIzxdy6vm7sVLCHgmV/KxGJJUiv2zl7rmLE3NwdkTy3GK322EwGJQvD3nLMPs58nNuNBrhcj0aH0IIWZndIGGyq9P0SBtC71zF1SuncTs0A/19zbh6PhEtI4HfZ5kpvQ5TYt9OISaqmmJcDS3G+MQEJkSkICm3Ipq2IiSE3IPBJXROSpiuD9kpNxCTU4YJOQWicxwRoWUYt8+ht74Q0XF3kFrXj3mXBwsTdbhx7jYGTPPK+C+n04HazAfIrA1MWS/f10hjIhLyK1b8l/+tYnGdsM1MZrDIgtMJjUYL7Zg4f4bNz47IdcKeT+RCzHJ2xKXrhMnf3ZKqTmWNsJWQEibXFhsYWj6j4nqghJE9ifwSWbwg9Xg8DPNcRP7BlkImZ2YihKzObpCw2vJc/NF3/zte/+QAjhz5CinhV5CZnoKjR0/gRz/+MV588UX8WNyeO30Kea2DqGvtxCdv/Ay//lu/jx/++Ec4d+4cMjIycObMGfxYbPsDsa/v/O4foa6jD3DN4M7tELz+qw9x4sRJfPbuW7hw5BPEZDSjrKULZ04dx8EvPsBPxPOKKqrQU5uLI9cScOrsGRw/fhznzxzF5UPnUdxhQVtjEX4iXu+F730XL7z0ljh3TcF3sPXILonTM0HZcW9OdvRTRqiHtJiYNGx+nbDgeDDZFXFrOkqSvYJs9UrLa0BYXDF6BpcuA7EyesMsErKqla6KsivjZqCEkT3J3NycMtMUIc8bUsLc7u37l2pC9gO7QcJmjBNo7enF2NgYNJphOIMtTC6XMzCRRjCu4O+zbc6Kwb4+9PQNQTsu6p2BbnFOcSsn3dCODKGvqxuWucDsfbIlSKvVQjuqQVdzI+obmmC0u+Cw25XXkxNzyMedtllYbHboxfFrR4YxPCweE7fjI+OwOjwwG7SorqhAbX07+lUaWK1WZf/bhd0xr0yiIWch3Og/KFksVqjVI+I96pSuiFsxM6KUQ9kCQp4/ZJdEOUNin2o8WLM60oMq63tgnN787wkljOxJKGHkeYUSRsjT2U1jwsjjyKm/LeKid3GmxPWKmMU6h6GhUWUsmJyaftOtYCLy+QsL7OpNvl0oYWRPQgkjzyuUMEKeDiVsdyO7JcpZEqWImcV5dTpdSrewtZB/94ymaaiHRhQBk90Q9VObGwsmJwmRz+d1LdkJKGFkT0IJI88rlDBCng4lbPcjW8Csc4EWMdO0bBWziYtSpzIxiHxMSpmcRdHhmBePmzEyOo4hzShGtZPKlPTrFjAhXEvLgde1Yn6BsyGSnYESRvYklDDyvEIJI+TpUML2DlKClFYx8fORYmQUQrY4eUdAlsyKcOmnZpT7Urw2G5PYv9XqUCSPkJ2CEkb2JJQw8rxCCSPk6VDC9hbyvMouiXM2h/huF9ecQsAWM2OWET+zZVl87Fkzp4xFk9PkuzkBB9kFUMLInoQSRp5XKGGEPB1K2B5GnGLZFXE7QshughJGnolpwzie7DXtd8suAisvZCexTI2graURTU3NaG5uQXdfP3q62sR9UW5qQktHLyatG/ssUcLI8woljJCnQwkjhOx2KGHkqdhVJXjhP/9LvHrgAu7cvonLV66ic8KIjsQj+C///ndw/MZdhN69hUsXbiC7dCj4LCD53Cv4+PhVhIWFIzz8Jl77wXfx8w9OifuiHBaKz9/9MT5M3diikJQw8rxCCSPk6VDCCCG7HUoYWZOFsQacffcL5JVUIeTgG7iSUIG6ulqU3wvB26+dRGlTNY68/Q5O3E5FbU0DBjQzsOpVKCmKx2c/eRE30qoCLV8tVfjml2/ii8uZwXILYi6/i3ePXURF6yAW1vm9RgkjzyuUMEKeDiWMELLboYSRVbGNtODk+18hsTawgnhL6mXcy2pQ7vekJeFB05xyf6QmBZkVE8p9iWmoAfeuHcbPvvMdHLtyD/fuiYRexk9+/h18eOpmoHwvHF/99Pv48OPjiH5QD9vDtRr98LhdcHvXXryREkb2AnIMwtjYGCYnJ4M1y5GPabXaZx6vQAkj5OlQwgghux1KGFkVj2UCGUnxSEy+h3de+gCXQqOQWlqH0YFO3D53AJ9cuIu01DTcvvAJDp0OQUpWLiYsweleFwZw9N2vMBYoCSZw4tCnaFuyIH3ByfeQskTeAkzj+kev4WhUQPZWgxJG9gpmsxl1dXUwGo3BmkdYLBZUV1fDZDIFa54OJYyQp0MJI4TsdihhZA08GOqpQ25aKH76h7/Euchc1HQNYay/Hac/eRU//eoikpOTcfrTP8U7B88gOT3roYT5ptrx+itv4KODx3DixAkc+/oD/Ox7L+KLoyeV8vHjh/Haiz9EWkOgle0RTvQ1VKNNvfyCdSmUMLKXkK1djY2Nyh/cRbxeL1paWjA09Ggc5bNACSPk6VDCCCG7HUoYWRN9TzMyo6/iJ9/7JY7fjEVDX0CaGvNDcTpfpdzvyDiC++V9yv2luN3zMOonodPpoNMbYbbOwqAX90V5clIHq2Pjq9RTwsheo7u7G729vcESMDg4iPb2dkXG1gMljJCnQwkjhOx2KGFkTeYmR9BYkoDXfvwebqVXQa3XID/qPD7/7BN8+PUxXLp0CUe+fB+fHzyKYyfPIrlhJPjMWWQdP4hPPj+IY8eP4/jxk7h48QrOnZatYMdx7OghvPfeeyjuXbvFazUoYWSv4XQ6ldawqakp6PV61NfXY2Fh/X9LKWGEPB1KGCFkt0MJI6vin9ejMCUU4XJSjT98GUdDIhGbUIyOtkqEXz2Ns2fP4tSpUzh7/hLOnDyOmIJGOFzBf9X3jODSz15GSpNOEaa52Unk58WhQW0IlK1afPH6d3ElfyCw/TqhhJG9iBwf1tDQsO5xYEuhhBHydChhhJDdDiWMrI7bBlVPC1IuvYl/+Xf+Db66FoOO/jH0FFzCN2cuoquvH/39gVQmnMA3V8PgCD4VnlHcePNXKFYFPyuuYXzx5SvI1CxePFpx/MMXEVIwGCwv4saEuh8jhsDMi6tBCSN7leHhYajV6mBp/VDCCHk6lDBCyG6HEkbWxj6Fi5/9HL/1Gy/gZ6+/jHtlrRiti8B777yGyyE3cONGICc/ewlfhPz/27vv4DayPE/w/++Z3b29vbm9i9id2LiIi/vjNu5292LHbczO9Ey76m5Nd5d3rVIZVZVUKlVJJe8pytB777333nvvvQdBECRBEjQgQYL2e/kSkEhKFEmJDoK+H8ULZj4kQAiEyS/ey1+G4ekzY2UA9h+fRFrHvHFdU4Lf/83fwT6lFfPy/uMaHK+dglfeszujE7D77lPcCq82rW+PIYzeVAxhRLtjCDNP4kwcmnEtFINqNrYjaMNQDo1KuWWjKJY5YQijFxLTET1vnoOzXzSsL/sjpSAFTs4eyEzwwGM3T3T19aO/39iqkuxx3zMIpsglmUGubwA6JqQnmboDbre/w2effIpvv/0Cp745BY/YTDQPTeD5j7M1zE5pMaPfVMt+Gwxh9KZiCCPaHUOY+VlbW4NKPQb1iAZz8wuYZ2M7gjY1rUP/gAq6uadztcwGQxi90MrUIHILy6TA04OLH11D7qDxeK++HDvcsHPFwJAKKpWx1SXb4IajF+aky9cMOih7eqFU9yLS2w7Xr9ggtrBZvq4oe99SFgNHq+v44uR5PHRKwfiC6dxiL4EhjN5UDGFEu2MIMz8zs3MYVL74xPVEh0WEsQHFs+elPX4MYbS7lVHEB6ehc9wYlmb6S+H84BruWT/Ew4fGdvfWNYRk18kjW4bRNnjfu437rt6o7VFjfGb7Ua2p4S6EB/qiUjFj6tk7hjB6UzGEEe2OIcz8TExOQz3yahWRifZjdXUNff1DpjXzwRBGryWGMHpTMYQR7Y4hzPwwhNFxWVlZZQgjOigMYfSmYggj2h1DmPlhCKPjwhBGdIAYwuhNxRBGtDuGMPPDEEbHhSGM6AAxhNGbiiGMaHcMYeaHIYyOy15C2MiYFmPju+9X6uYWMDyqlT6HX76o3LMYwui1xBBGbyqGMKLdmWsIm5Nev+OTO5fK1o0OYlCtNa0B+pkhTC1s85pfFTuDY5hffj2CIUMYHZfdQlhJVTvcgzJRWd9t6nmeOMedoBjSwC8yDwkZVTAY9vdZzBBGryWGMHpTMYQR7c5cQ1hrSipyilWmte0sIyciGIlVY6Z1YLIzH55hSdA8W2h4ToGA2AT06aTltRmUZ0YgOj4JKSkpUktGXFQMUnO7YDy5zAq68jMRFhyKiMhIRD7TIiLCEBaWgt6xwzup7XYhTDPUhtJWFQwLcxhWDEChUKA8KwTpZY3SslgfgUFsqFehWPq/PLW2gJKYQMTlt5s6NuhH25ASnoop0zrRTiHMsLQCr9Bs1DX3y1UUnzU1M4f49CrMzBq/PFmT0pgYMfOUrjM0MiH3vSqGMHot6fV6TExMSB+Iz79giCzVysoKxsbGpA8K424VEW3PXENYd24yvFzDkZuXhzy55SIrswBdSmNkWJ1WIC4hCTWdTSgqyENBfh5ysjJge/MqHnhEoaCgAEXlVdCI/UGDCqGJKVCI5aVhhLvdhFtgJKKioqQWCX8XRzx0KTKGGKxjYUb6/4+Py5+d27cpLC4f3mfqdiFsdWoAQeE+yMnPh7+dLewcHHDxqxM49eMtODjYwN4+Eq3tHQi3uYh3z95GbHI5Judn0ZCTgeT4bOSlpKG2c2uoXVvWoTzUF95RNdj+BDn0ptkphE3PzsMnPBcDQxtffGzW2DYA9+BMLG4a9Vo0LME3Ihcdvfs79xhDGL2W1tfXMTMzI++QiiZGB9jYLLk9ea6LLyCIaGfmGsK6clIQ6J+Mmtpa1MqtBlWV9RgcE8NZgKoiHaGR9Zge70BeYR4qpP9HXV09Wlpb0dzYgJKCbGQWV0GtbEZihAuu37WCq388GloakRLrjeKmbvT09EitGw0F6XDzK4e57LFtF8KG+xVorm+BdmoE5Rn+8PYLwv1Ln+LHew7w9/VCSkU7lnVKOHx/G64+IYiNT0VinA9+uiQFTg9nWD98DFtnO1S1tUO/+RCd1X5c/vgcsrr4fkk7h7DZuQU5hPUMPH8icTEyFhCVj6LKNlOPkchB8nX6R0w9r4YhjF5rYiRMjAqwsb0JjSO/RHtjriGsLzcXJdUvOi5qEVGO9+AU3CAtr6E4LQtdmq2v+dxIT8RXSzuL68tYmOhCYHwSerSLMMwOItr3ISLS8uTRsoKCfKSEBcLOowzLWEVPQxYSk1KRkZWJjIx0pKWlIT09AxnpxuXM7EykpyYjIbsQ/TOHM360XQgrDPPEqXvOyC/JhauTAzw8vXH3p8/w420beHq4wdnDG+V1hQgM9YVfhA9yitIR6GkHZ2c/ZBV1QCftj2r7SuASFIKxTbumC4oc/OnDt/HIL9M0Ekhvsp1CmHpMC++wHCiHn39dDkp9zv5pGBjSmHqMlqXbi0ouQ1VDjzwo8KoYwoiIiMiimE8IW8WkegDNTU1oaWlBsrcXfAMz5OXm5ma0tndjct44zWm0LQc/nf4OrhGt8rqiLAHJ5RvHPK3P9iDAxw3tU6b7sKZFZGwoUtLaMN6vRE1lOhq6FFAqlVIbRGddJdLy+uVNJ4a70NbeiZaKejTUt6CjowM5wQ5wdg1HW2cnmsoa0Sn9bO3ug3bxcKY7b1uYY30EHhFhqGhvgN3XZ/HTjUfw8PKFtxTAbp49i8u3QtDalA+7c6fx8Z/ewRVHfzjc/h6XLj2Ev186asoqUFYYA+vUetMNCotI9rRBfEUNMqXHK6t9+2lm9OZ4UQgTmcbZPx2F5a3bvrZzS5sRFFOw7RegXf1qPHJPREOr8TX2KhjCiIiIyKKYTQhb1iAsyA2+0anIyspCdk4OcnKy5eXMzEwEezxAQlWvtOEqmkrTkBiXg5AEYwhbUtfLx6LMmDLRaGMO/IJy5eOc1lYN6K2JxHUre+SVdaGqOBcJyelIT0uTi3KkpKQiLS0VCbHRSK17UvFtDWUpmWgZMo4NDZXEID61VlpaQZx3OCrVh7tvt20Im+uHfXAYBpdWkGtnjWu3bOHh6QlPT3fc+f4SXP3E/RNWkBZ+B6lSWAx+dBHXbtgjOFD6P8YlIDs/DjYp1abtAE1dAn546IVJ6U8115cDG5tITHESwRvtRSFsbn4RGQUNSM6ukY/z2ky/uATPkCzkl7eYejaIUCb6Q+KKMLqHsvYvwhBGREREFsVsQtiCGhFSIFK8YE6cuj4WaVXieJN1rK2vYrSlBgHRjcYLl8YR7+eJ+nGRwtZQGu+JuFpjEYo5TTs6G9LhFZuJsWVAOzqAmupydCmUqEj1QFByHkZHx6SmxsjUrHydocZUBMZlYnrF+H/oK4hETHwp1qXfq+zIh59P3JYpfQdt2xA2PwDnsDA0q3oQePMebt4RIcwLvv6+eHDxClx9KjA/NYjcxCjc+OF9XHzsAYf7l3D3rhNCg7PR2tiMhookPEiqkm9uYbQZ7tfuoazbeIydUBPujUcheVKMozfVXo4JG1RtfW72D47BQwphM7Pzpp4NIgd5h2Wjq+/548heBkMYERERWRSzCWGLI4hMSkLn1PZT/PorI6UQtjHlcKSxAv5PQpikOjsSUSVS8FobQZBbEHqnNw3pGEYQkSwFPFF7QteLhJAIzEmLU60JcHF1RmxcLKKjstE/tor12X4Ee4eibWqjwpsxhJWYStivo1n6Xf7ZddLS4dguhK3N9+P+9W9hHRMLr6sBaFSKEvlr0A6rUBITDB/fCugm+5AS5I4rd39CSdMA8qIiUVbdgKykUhjmx1GR6IZ7ybXQdhXDXgpyWfXPFEswjCHW6xacfdMwruMRYm+inULYjE6/bWGOmNRy+Vxg2xE5SFRHZAgjIiIi2sRsQtj6JGLT09H3/JfpsqG6OGTUdJrWpKDSVovg+I1KbNN9zWhoUmC8Ix8BSUVbA9LKGKLSsjAqdc50Z8LGzhV9Y7PQtKYgpagK8/PzUjNI93kVFVlhyKxSmq5opCqJQVRM4cZtrmgQHO6GutGjK8xhmOxFUV4WNAsGNGeWYVC7InWOIsHRBtcfu6Cwe+NsXx31Gegc0qKnOBWu/kHIa1KhryIU9x88Qq1iGLWpEShue2ak7YnVWWSFhyCveX/V7Oj1tFMIE+cB8wrNgUK1UXxDFMKKlEJ+e/f25/RbWl6WglvOCy/fK4YwIiIisijmEMJaWtvg7nAfn3z8Nt7+9As4OTnK5/CytbXFt99+izNnzuD9P/wCLjG58vadnR24d+E7vH/yEu5duQA7G1vEJiTCxdkRn779O7z73if49uvTeOTohebBEZTnRuOdk1/h5r07+OLrz5CZGo2ilAzctbqCT78+Bzt7Bzywvo+CigqMTU2ivqMH3l4ecLK1gd1ja9jeuYXkCgX6FQNwdXWFr58/7ltdQk75k+OwDta20xGJjsBOIUxcFhRTiMTM6qfHd4nX+axOL5+Y+Vm6uQWU1nTALSgT45PGqb6viiGMiIiILIo5hLABhQLJ8dEIDA5EcEQ0ent75NGptrY2xMfHIykpCeHBvihv7JC3HxpSIiYsBH5BUUhMTkRXZ6e8vahkmJicitTUFMTFxaG7bxD6yW5Eh3jB3T8EoYHB8A9NwIhmDGsrSyjKjMUDcf4sKeyJEBaRbyxaMTKsQnpaIgJdnPD4gTU8I5OhWQE0o2okJiYiPT1d+h3pGBpUyNsfNIYwOi47hTChTzGKiMRSueT8bhRDGoQnlKC5Y9DU8+oYwoiIiMiimM10RHqKIYyOy24hTBCjXuLkzLsR7wEHdc5OhjAiIiKyKAxh5ochjI7LXkLYcWAIIyIiIovCEGZ+GMLouDCEERERER0BhjDzwxBGx4UhjIiIiOgIMISZHxHChtUbZcCJjgpDGBEREdERYAgzP/qFRfQPqGBY2jhhNNFR0Gi0ZvkFAEMYERERWRSGMPM0PaOTg9iQaoyN7QjaKBSDaiiln2I0zNwwhBEREZFFYQgzX4uGJUxP6zAlNfGTje2w2tT0LGZ181jf5qTL5oAhjIiIiCwKQxgRmTuGMCIiIrIoDGFEZO4YwoiIiMiiMIQRkbljCCMiIiKLwhBGROaOIYyIiIgsCkMYEZk7hjAiIiKyKAxhRGTuGMKIiIjIojCEEZG5YwgjIiIii8IQRkTmjiGMiIiILApDGBGZO4YwIiIisigMYURk7hjCiIiIyKIwhL2eVldXsbS0AoNh6RDaMpZXVrC+zr8hmQeGMCIiIrIoDGGvDxGKREiamZ3HpHYW49LfaUza13zSNOOiTcv9+22T2hlMT+swP7+IlZVV0z0gOh4MYURERGRRGMJeD8tSEJqemXsakrRTs3IYm5tfkIOSbk4vhyZx2ZhGKwcysTwxOfPybcL488nvmpiclX7PIkfG6NgwhBEREZFFYQgzf4uGJTkUiWA1Mzsnj4atra1Jl2x9jMVjvrS8LG8zppnEyOiEfJ0tAesV2rgUysQImwh9Yhok0VFjCCMiIiKLwhBm3sTxWcbRqGlpR9Sw59GopSVxPS3UI+MHEsREE/dDjMYZAyDR0WEII6JDMbUEDM0DyjlgbAFY4ecbER0RhjDzJYpjTGiNAWhxUfqgeEniWK7xcS2G1ZoDDWKzOr0UBk2/hN444nllkEL+bsR2YhrtQWAIoz1pL4hGeEKzaW0Xa6tYWFzA6to8ksI9UdA+brrASK9qQEhICXSmdbIsI3ogQwV4dAIPpKeMVRPg2AZE9gMtU6aNiIgO0ZsYwlQN7ejpmzGtvYD0+WwwrGyZ8LdiWMbS8tFMxxMhR0wrFOFJrzeYel/e8vIyRkbHn46IGUfVtg9Ye23iNsQUSXrz9AyMICSuCOW1XaaeF+tXjiE0oRgVdV1YXd3ft8sMYbS7ZSW++e3/jb//9CbCwsMRLrWo2FjEx0nBzLQeFhqC8Jh4qGald1h9F6zsrqJpaBS3z5yAS7a0971JR/hN/PV/PonOV3//JTPVMwu4dwD3peAV0A2kDQFZw0D0AGDXCjySQlmuWvrQ57eNRHSIzCaELevQWV+K/IJCFBY+3wry81Fe3wad/AX8OkZaG1CYm7fttoWFBcjPr4BqckG+6Wd1FCfghmMoJrb5bF3SDWNofALL4wMIDinH1MoCxrrV0nvxEkryClAxsP1tHjTjdELj9L/9FsTQzc1DNTyK0bGJ/YewiY1piSzU8WYRQcovIhcZ+Q2Ykv7+zxKjtXXN/VL2Mb6w9AtLaGgdgEdIFjTSc2c/GMJoV3URPrh0zxcZ6WlISkqSm/WZz3Di0/tP1xMTEpCclomROenNa74Nl+6cQZ1yHPaXPsCvP/gGN6weolIhntxziAmwx5lvLsElSdorJ4uhmgdc2o1hq3pc+ktvGtUXoWtQ+vMH9QLWUkArHjNdQER0CMwlhBlG6xHk74zihha0trY+11oaShHk64hmzYq09To0XW2oLCtDZWXlNq0C5eX1GJmS9sHWdaiMDEFAYCgiIiIRGRmJmMhgPLS+C4+AcGk9QuoPgbd7FGq7p7Fu0KC1sQyTagXCQkrR3FiKhqoBrC+MIy7cHXnNAxhSqaEaHcPs0uHNHdfN6eViGK8yDfFZopiGekRzwNMSZ7C0LP4W9KaY0enhE54LxZDG1LNVd/8I7L1ToJvf+KJCfJngKwW3rj61qefVMITRjjTtSbj03W0onpkm2xbni9seLwhRhh7cfnQBbRodHK99Cue0NukNdxHis2u2swAuznGYmFDC694DNKmffSPWoyojEQWNKtM6vQ5Wpb+tGO162AzUT5o6t6E1AL5dgEOb8XgxIqLDYC4hbGm8BaF+jkjJL0ZxSSnKKypQUiwtF5egTCznp8LL0xGt4y85HXBFjVQ7BzQOivNeTWFqSmrTs/JO3ZxuDvPz85idnUJWWDwSiocwquxAakoqMuPDcP++N2KTElBU0wKNshl+Pv6IiYtDkPt9WHmGoEcc0HsIxGOnle6jOFfXQVUjnNROQ6kakcvXH9SURO7jvllmdPNyCOsZ2D5QxWdUIb2g3rRmJJ4jPuE5DGF0iPS9ePjjSbjndGKktxFlpWUoKzM2r5s/4uR5z6frpSXFqKzpw+LqEpSV0Xj349/CJzYFp9/9e/zoGIOy6noMzy2iJsEBDy76oHfQgN5CX9xwD8PWt3stfK+dw+OoOtP6y1leA8rG1hHRD0RKoSCK7UhaeJ9xBEws7/YdaqPWOF0xW7WKFcOCHNDZ2NiOrxkMe69O97owmxA21oSIEC9UdfSiv7sVNaXl6OzrR39/F+pLS9HS1ozc7GQoZpYxoe5Ga2sbOjo65Nbe3o6unj5p2150SMsdnVJ/WxtaOnswPq/H7PgEdJo+xEeHSf/HMPnQgMioGESFecDqrjOquqehn9VBN78M3bQGLfVVcLl1EWe+tUJacRUGVYNI8HKCb5HxkAF1YTxKKnrl5cMgF9SQ/gYHOeVPJ+1AK5TDctn6/YYwcX3RZqXbpDfH7NyCPLWwb3DU1LNhfHIWjr6paOseMvUYieqegTEFz/W/LIYwejHDJDr6RzDeW4CT7/wCV2zd4eHhIbdLX3yMEx9eerru5uoM36BizC7rUZcWB38fb3h6uMPT00v+6RjgAwdPe8SG5qGjOhG3H8djWfqX43sVjsFF0IuhlAPQNGk87simBbCVQgHb0TQRwESr3FqDZVsT0tuHS4cU3HpXpTc/PRb18/K3tmxsbMfXlpYsqyCBuYSwxdEGpKTHoKGxDOlxwXC9/xixaZnIzEyAp/V9hEQnIbOgDJOLK+hrzkVycioy0zORkZaG9PR0hHs8xoMHTtJtZCA7IxvZ6WlIzMpHj/bJ32tNLlIhtxVpeVaJFF8XhCaVY2Z5474uaHuQnRyEtNQ0PLrviqjEVPRIwS5KCmHB8e3yNq0J+ahr2sOb+CtaXl6Rpw3qdHpTz/4tLCyif2BILtKx3xAm2pOQSG+GqZl5RKeUIyWnFgvbTJGtauiRpx2K0yg8q7a5Tx4N2y687RVDGO1qsTcZJ89fgcK0LtRHeuKGy/ajVSsLc9CIAh2zLUjKSJX75kc7EZ2WjmbRLwnzuI8secahDimeEegcOZiDgmukzw9rKYSJ6W5sR9+a9lD9cEZ6n/PuBoJ71jClW8Digh56PRsb23E1EcLEaJglMacQlpmThNHpCag7SxFh747WoRGo1e1IcLBHSdMgRiemsHlynrKuGb1K4w7heG0y4uLL5OXKpBLsXD/DgOLUSKTmSm+wW0g7ejUZaOxXQtXThPQCBaanh9HSpIB+vAd5UhCcN+iRnBaLhpHDC+NPQ9jcwRUBeRLCxLFhB3FcGEPYm0WMdImQVVDW+txrW1QMDYopQFJ2talnE2nTxvYB2PukoKPn1Q+fYQij3Y3m46sLVzCw6flZH+nxwhDWkuCNL++lYXqoAA/v22B2fRXBl08hwD8RvvetcO/hA5w98yf86cJVXPrJBkXts6Zr7p8oBpGiXJfLo3tKzYvtSJq71MSIWNkeCm5opLcPx3Ygqm8Nc3oRwhbkNyI2NrbjaWJKoqWdqNZcQtiCqhbBjx8gLC4e0WG+cLxnDf/oRCSnxMDd2hohMelITYxDVduAvL1B04Tg4FB0TxtDsbI8HlHR+dI+3zKqciPhFZYNsQe2NNGG1PgQREZGIzra2CICXHHV2g6RCYmIi42R+yIjIpBR147OlgpEBbjj+o2b8A2PRXRsNEr6J6RbWkBeXixKKiqQGB2Fsd1Pk/TKlqWd2vHxacwc5HTEuXn0ySFs/ydvfjodcZbTEd8kGimI+UXmQT229VvkUem56hKQDtWIeJ1sJUbN/KPypCC2eXji5Yn3X4Yw2tbqjBr5EeHwtb+Iv/vlb/DY31iBSbR7332Bd07de7ouWmhwEHLK6lCbEoFLDlnobUzFuz/7AyKr6xBx8wzi8joxohyCQjGA4RENutKd8Ld//RGy+g/2Wyfx3r64ynaUTVRGFNMRQ3qNx+XtpGocsGoEikfF32qdjY3tmJslMpcQNtVWhjjfNKiULXALiUb7YD9Cw4NQ3qWGTq+HqqcGBVW1mBKjQ6tzSA/3Q2brxsH+cgiLyoWxXp8BJdHBSKgZlLadx7hmBKOjYxgbMzZVWzHcIpLQq97oGx0dxcTsHKZVlbC7eQe1gzroZjRIDnJBfLVxB1JVm4Q7l64isWhYXj8sIuhPTonCHLNY2+f5lZ6YmJw68OmIc5uq4JHlE4dFGAtzjJh6jHKKGxGZVLrte+TcvLEwh6icuB8MYfRCq7oxlCUlIl768MrLzUFairEcvWg2F77BB189frouWnxcLEpqm9GYFYOTX17AfWt7pJVnw/mnz/HFB58iu1kDw8yTUa9FOF3+E2xjpL3xLaYRbn8H3lltpnV6XSQrTeXnd5geLcKaW4fxmDAxIkZEdBjMJYT1lWcgsUSUvtYhOqsA8ifgZDNqC4tRU5mPmBA3JJQbTxCrqEpEbOrWz8Sh8jjExeab1iSLg3DxdUXr+DZDVvoeeCcaR8qetbYwhHQPNyQW1GJU2YmIpGwMmw7NWh4qxs1b55Dcc/jT8GZ1xhL1hgM4KbIIdUNDaigGhzE6NnlAIWxGLrpAbw5xbjDvsBwMDG1M5RHPLf/IPPmEzNsxmErUt3fvr5I3Qxi9kroID1x3qTWtbdWTHYCf/e4UctuMT2htWwq++uBDZDUqUeFthRshGcgPt8W5q0F4vpq5Dhlhvkio3HqCZzJ/k9Lbgk+3sUy9OCHz2KYvE8U00ZYpyNNEReGUuh3K2BMR7Zc5hLBhZS+sb56HU1w+SnLCcff+bYQnZSE5pQTxIa64ev0aHnsHoX9oRLpdA/IKsxCYnIOykhL5xMxjo8PoL03BY6coFJWXoaTEWNq+vDAWzSOzGBkZQbHYNicNoQHeCHC3QmhOOQY14ygqKpS2L0FBQQHU0nbC5PAAHv34Gf72v/wDzlv7YWxyCqvTPXB5/AA3bt3CdxevIS6jEJrR/ZXd3okIXyKEzczOY7+DsDrdHHr7BjGkGsWYZp8hzHSy5qlpnbwDTm8OMbVQjISJwCXClSBO4NynGIV+m2Id4jJxTjHXwAwoh5+fqvgyGMLoleR7PMCZu3mmta1aEj1x4vPHqK6tRnl5OapqC3D3s/eQWjuJpbkxxEsB7J1f/SdEVu1vGJfMj1oPBPUAVk2Aq6iA2AdESnnaTwpnD0wFU8SJnImIDpM5hLCashx8fuYiXN28YGt1CXeu3kJBTQsSE7Pg6OoJdydbXLt+GbZSCMpr6ENLZx+c7O3g4myPy998BRtrK/hHJcIzqRgebi5wdHSEnZ0durqMZeRbWlpgZ28Pe5sHuHb5IqJjEzBnWJfL3Nva2srbP378GC2tzRjrr8HjBw9w6usfcffBfVz+6Rz8vRylz2N3eMXkwMPTA9ZXz+Ct3/4T0stq5Ns/DGJqlwg6IvBsV41ur8R5xpRKKaQOqA7keDDR5Pu0TRU8snwVdd1wD8pE+QtGvjYbUI7JI2eZBQ1yINsPhjB6JUPNYh779udHmFG1wMvDFa6urnBzc4OryyOc+sPvkNakNW0BdJR64tJ1GzTwjL0WZ3YZKNcYjw9zlEKXOFbMW3pfy1ABgyw6RURHwFymI+7F6uoKVrbZmVtZkfoP5PcZ0F6Tj/bBadO6kaK1BW2KGdOakXKwEb3awz0mSow2iGl/4qTNS6aRh5chRqpGRsfQ26uAanhUnop4EEU5RFXEw/j70uthQjsrPQd23yfVS0FdIz1/RYXE/WIIoyOxNDOJuQXjocVPzIyPY0LMUyOLZFg1BjJRkn5+65+eiOhQvU4h7E0kdmRF8BFFOsQUxb0WiBHBVD0yhh4pgCmHRuSTNIsAJm5ru3C1lyauq52alU8mTXSUGMKIiIjIojCEmTnpYZzXL8gBSIyK6XTz8gmntyMCmjjH2NT0DBSDqqcBTExDHNNotw1Wu7VJ009xfJpWej6I2yc6agxhREREZFEYwl4Pi4YleTRMhCExPVFMCdTN6bGwaJAvm59fkMLXrFyCXlRB3AhfximILzUCJoU98XNcNFP4EwVC9ntcD9GrYggjIiIii8IQ9voQIUjsV4oRKRGQRCAbk/Y1nzQRtkSfCE3GZjypsmjibyou20uTryPdvgh9InyJUvSWep48ej0whBEREZFFYQh7/YjHdml5WdoxNcgjYAfepH3XxcUlHvtFZoMhjIiIiCwKQxgRmTuGMCIiIrIoDGFEZO4YwoiIiMiiMIQRkbljCCMiIiKLwhBGROaOIYyIiIgsCkMYEZk7hjAiIiKyKAxhRGTuGMKIiIjIojCEEZG5YwgjIiIii8IQRkTmjiGMiIiILApDGBGZO4YwIiIisigMYURk7hjCiIiIyKIwhJmvtbU1GAxLbGxH0paWlk3PPPPDEEZEREQWhSHMPOkXFjGgGEbfgAp9/Sr0Sz/Z2A6riedYb/8QRscmsb5ufq9dhjAiIiKyKAxh5sewtCzvGOvm5k09RIdvdW0NquExaMa1ph7zwRBGREREFoUhzPxMamfknWGio7a8vIK+/iHTmvlgCCMiIiKLwhBmfiYmp6EeGTetER2dlZVVhjAiIiKiw8YQZn4Ywui4MIQRERERHQGGMPPDEEbHhSGMiIiI6AgwhJkfhjA6LgxhREREREeAIcz8MITRcdkthM3o9Cgoa0FTm8LU82LDI5PIK22BUiU9l/dZ9p4hjIiIiCyK+YQwPSoK69A3sWRaNxrvKkVQSDxGV0wdzzAYFrC0669ax0BpLroHp6XlNegmJ6BSqba0oSElpubEPts65ufnYFgx3ujKoh7asRHTNkPQzG69f4eBIYyOy24hLDJJej3GFKJHMWrq2SBe8+OTs1haMr5YxXJKTi18wnMxM6uX+14VQxgRERFZFLMJYXoF/GNC0Ta5/PRksauzA4j38YCTlzfSq5Vy37MGajPgl1AqRbgXW19fRW2wG8qbNFibG0DUg0cIjktEamrq05aYEIemPmnHcnEUzs52KO43nqOrOdoPd+44ICYuDlFRUYiMj0dKVdOOv2+/GMLouOwUwuakTOMdloO+wecDmKAamYSzfzqmZzfOb2cwLEkhLAe924S2l8EQRkRERBbFHELYum4YKcHOuH77LnwDAhFX1YWVhXHkR4ehrm9G2mIJWSFxqFHojFfYZHV+CmVRociqGDT1bLUyM4jkuFDY37wOOycfZGXHIyM4ERq9FkNKBUZGxjCmHoJC2kmcW5Tus34QNjYPUNBr3JGsCnaHS1S1vCys6UaQEeEPv7QqrJr6DhpDGB2XnULYlBSuxKhW3+CIqWer/LIWRKWUSa/9NVMP5BwkQlhnz7Cp59UwhBEREZFFMYuRsPV1tJWmIzazDYbFBWjV/UgKcYO9mxSucnKQlpqM4CB3OASFo0czi+duerINtx/5o316mzmL66tYWtAgysMaxZ1TWJ1oQ1ZgLNp7qpGaFA93ZxvY+IQgPl7auRw1AAYV7OweobDPGMJqQj3hEl4mLz+1NAo/DzuU9s+aOg4WQxgdl51CmMg0nqHZ6BlQm3o2zM0vyqNgdS19ph4j/YIBfpF56O5//jovgyGMiIiILIp5TEdcRlNhDDJKM9A+0IXavBxExKUiOSkJabkl6Orrw9CEFgMNOfBPzIJWykqbTbel4vIPZ+CX14yN7+A3me6Gw5XP4F/ShwVtN7L8IyCODhPaarOR3bdgWpPoFLuHMElJpB0CUlpNaweLIYyOy4tC2KJhGRV13QhLKJbfF57V2qWEZ0jWc5etra8jp6QZSVnVmJqZM/W+PIYwIiIisihmMR1xtg8hrjHIywtFWmUdpgY7EeOWhNLyDMSkR2NoZBZTA1NoKipCdN6A6VpPGJATHob8kgqER4ejZfyZhCZRNCThzvff46GtM0JiIpAdmgSFWoG4mEg42T+AtbM3ErKLMbUsbaxX7imElUU/gGdklWntYDGE0XF5UQhTj2lh65WEsppOU8+GVem1HptWgcjkUlPPVj2KEVg5xaKmqdfU8/IYwoiIiMiimEMIW5seRGxkODxdrWDj7oWSvFzE+uSgrr4ACVlRaKntRXt2J+rKihCbv7U0tl5VD+egOEyuAn0lcfBMrdsyGram1yArPxpJAYForWtHXmEcYrxjMLG8hHHNGHJSwxFe2IyJqVnjMV5zg3sIYavI8bdHWP7WqVcHhSGMjsuLQpg4zqurX43QuKLnRrumZublqYitnc8XzxGVEkU4K6xok2/7VTGEERERkUUxj+mIRgvKDKSUV2BC0YagR94ICvaEb2wkOpoG0FXQg7rSZ0PYLFK9PRFTrZLX1udHERHpj9ZNo2ELI71oUKnRGBOImo4ZKWT1ItM/HIPjk9CMjSI9IRCBec0YHR3BjChRPz+0TQgrl5efWBmtx+OHdmiZeEHd/H1iCKPjstMxYbp5UWQj97lKh2KEKyimAMsrz78exLFi3mHZ6B3YvpjHXjGEERERkUUxhxC2OjeE6rJsJIY7w8nHD2WFeQh1jEBSUhjCU2PR0zqEvuIBNFaUImbTdMTusjgERBTBGJeM5hUViI3Mx4xpOGzddD9aYwJQ3z0r7RX2Iz80AnVS2EtJSEBycjKSU1Kl35WI1sFJaW9PjYcPrVCkMAa5+nAvKYRVyMuidP6UshbRQb5Ia9z9ZLWviiGMjstOIUwc0/VsiXrxmvCPykNOcZOpZ6uFRQN8I3LR0WP8ouRVMYQRERGRRTGHEDY7oUB+TgrC/B4iprwFemUncuPFVL8ZpKd4oLpDhRHlCMqTkhGVp8Tq2iJqs/1h9dgNTdIO4cK88YD/lZUVTGk1yI0KhmtAFiak+yGsrS2jwMcBmcWdGOsuRaC1A2oHBuWTLw8OKjGoUKC/vx+qkTGs64cRGOCL7GY1xsbGUBzgiqsXbyIoJATBQUFw8vVDbnUjJqenMT4+jtXVgy9UzxBGx2XHkbC5BXiF5qCzb6PcvNi+tLpDes8Qp5J4nriOKNjR3c+RMCIiIqKnzCGEVVbV4K7VA9z88WO8/+VpVKQnoDSuBr6BLvj9ux/iyrVr+Prjt3H2u0toUi2hJjcKv37rt7hw4x5u3byGrKws+XZGR0fx8JENrK1u4tS7b+Hs5duYMgB6/SQunnwfp05fwO0bl3H74gUkJichPj4eX375Jd599128/cc/4vKdh/LxZGtSsAoICMCNGzdw8+ZNODs6QKPRYFHaEQwIicDdO7eldgfW1taYmdl+53M/GMLouOwUwoSUnFo5VDW17z4SPDyiRUhcIYLjiqQQtWTqfTUMYURERGRRzCGE6fV6edRpdEQFlVqNhbk56KdnoBjoRf/gCDSjw+hubUWfyvht+sz4GFSjWmi1E3LwmpO2F8RImBid0oxPYFLaZnBwAIurYsrUKkaHVRhWj2BMMw794sa+mbju1NSU3GZnnhSuB6aldXGfRPgSl4lpV8KsFLqe9HMkjCzNbiFsXm9AfUs/+p45Lmw745Oz8vFiM7N6U8+rYwgjIiIii2JOhTnIiCGMjstuIey4MIQRERGRRWEIMz8MYXRcGMKIDoFGD4zNSz/30MR2kwumK1oIMZVkaWkJBoNhz01sb0n4GBDRsxjCzA9DGB0XhjCiAzQn7UPfLAL+nSvw527Av3ffvf1babv/0xMIagZWLeBzVJxkUMzpF3P4n8zj362J7cS8/9nZ2afHArzO+BgQ0XYYwszPuPT4M4TRcVhdXWMIo9efQTcJ1YTWtLaTdcxMjWJybuPkkgepSg38c1vgX9gB/8ph7+1/kK4jgthuI2JrS8tYNR4TLVnH9NwMnq4K0oUj2nHs5dBlvVaJXsWkae3gzM/PY2JiwrS2dyJ4iBCy59GgRS3GtLOmlQ268SHolk0re7SyOIex8RnMzExiYmH/OzPiwPdXeQyEl3oMtrOmRWtDFaqrReuAdn6vB7Kvoq+xDuXlNehV7rUC2QomNFroZqcxMrXlmUhE22AIMz9T07MYUu1e+IDooC0uLqF/YH/n9DoMDGG0I4N2ALndG+dOmG6Jx8fvnUHT9DM7nLo+pFUUY3bTicVjfL6BV430hjvZjTBbO9g7O8NZag6OTmhSzZu2ejVFSuC/swH+zAn4X1+iiSD279yMUxN3MtWWj69+8xOK2o3hqT7TA4/CSuRlQZnjgrPX7TGqm5fDkHhNrEofzl11GUhrEOeB2TDRU4wwF2/4OjqjQTWDFdPJNvfrSfWrVyFGhMS0vF2tT8P5p3fx1299CCd3V9jZOCIuu18K4634+Of/Ee9+ex8+3p5wsreFe3w+BntbEeVoDwcXF7g428PeIRr9mzL7fGsOzl6LRGdXMazdfDC0z+mh+3kMRHhb3FRNbCeTvRVwc3aAk5PxOezk6Iib5/+I76/fkZ7P0nPbIRQtg3op4JquICxqkBThBVs7R/k6ojlKj5NbYCiCPFxhbe2EhOwuGIuQzaE81B/29g5wcXWGzSMXpBZu/tZuDo8u2yC5ugvhgXZIaNh4TRLR8xjCzI+YEqZQqjGpnZZHJtjYjqKJEysrBtXQTj3/ZfJxYwijHY23hOGdD99DldI05LEygluf/BrWSV3GdZNqnwv42Vs3MCjtVOsnlcjNycDV70/gjE0oqstr4fjR7+ESnoe8QEd8++ldFFWXICc7C9l5Begb3cvI2lYl0v6pGNXaSwj7n6XgJUbM/szRGMLE1ERxjNhOVhenEet4Be+8dxXpRYXITQvE+7/+DDYhqWjq7UOc0wX88aMzuH3rFm7euIqbt73QOWHARHcR7p38EHfd46Hd8jJZhbKxGEHxEWjVbkqq+3DoIcyghcODCzhr5wFPp/sITShBVUUVWmpq4HLtIsIyq5Ab7wnv4FTUVFegpmMA01oNWisrcPP0W3j7h0eoqGhDR2sFsrMykZOTi1gPa/zu/UtIyUqF/YU/4ORNZ/Ts9sfYwVGFsOqQR3jnlD0qK6tQVVUl/axETWM7tg4EPrNzNlqBP/3Tt/DPrJCvI1+volx6nLZOiTAGtyUMNTcgK9AK//WXv0N0fhU6W1tQWZyOzKxc6fUUi8/f+wx3fFORFGyF9z96D1GVAziYZxKR5WEIM0/LKytQqUblqWG9fUPyTza2w2ryc2xAZZYBTGAIo10sI8/hPL67GYEnu+wF7hfw/nkvPBnEmFNk4Z0Tv0V8jXHUaHa4DX6+nvjms1/gw+8fIb24E+n3LyG9bACKwkQ4P4hHdXEcfP18YP3t+3hgG71pZ3IdK0tL0hv1zsNFew1h/5M98H94AP8YYQxj/1Ja30sIe6K/pwnZQXfxm//2j7hm5wdvLy8Eednj8qNAvPBVoB9Gdnoh1DNaZPq54b6VNR7ZPIaDi7sUOBaf3VV/ZYcbwhaQ5XQVv7kWCN36GspCvsU1mwT5hJ9lkXdwyzsLS9J/RNsSjh++uoOOZ3J0vNNZXPbLk5dHOjIQ6O8NX18/ON6+gF+eOA1X/wCEBAfDNzQKtYMb57B5WUcVwqpCXXHdqd60tkcjldJj4wa1aXUvlrrT8eHX5zEmVhb6kRbrDW9vP+n15Ij3fvc+zt1xQWBwCIIDAxBb3CJFNyLaDkMYEZk7hjDana4Z37/zG3iWGKdAzXfE4sSv30bR6CrWZ/px748f4qfoGvmyzRIDz8KvQScvp//0BT7//HucP/U5rt/xR4SLF2qkvVN1VgTsXfI3BZNJuH5/CreDqkzr23s2hImA9b84bg1g/9IO+N+cAU9p33lUCl3fZAH/XOoThTx2DmFLSLb9Bk4x5cbVlX44nj2HPlNSzLU5g1O3fRAbF4uExGSkpaahol2B+SkVarp7jBvJ1jGlHkJ/Xz+6u6px9YPfwrNQKV+ypC6H7cNAjO1jL/pwQ9gqNAODGFb1QakWkWAZvrZfwK2wD7PzEwhzuAorb+PfSKtSYuaZIZlYhzP4ySdHXjYsLMqBTVjoyMbpS14boXsPMyJ3clQhrDHOCe+dvC39zeMQt6mlpGUgIy1ZWo5BZHgyGjo3Hfs3XodvP/waNgExW64Tn5SCrMwMJMbHITo6Guk5rU+/0NB3pODD099DJT9AK5ieffLKWMSjS1eR3LnpAXvmMSeiDQxhRGTuGMJoTwZLIhFQsDEFsaurHaKkwHpfBlweB2zZH2zJDcTdW9dx8v1f4MQHp+EWFoKQK1fQNCJd2F8BL5s0NBZF4+F1b3gGu8Ixa3NwMaCjqhQNvTtXUNocwsTolhjtEoHrX0thTA5gUp9Yd6k1bi+mBn6VYZyWuJcQ1p4bjo9+9Ze4nFCHNW0TzvzpYyRUdGNAOQJldzVqKooRERGJ+Bg/vPcX/x6fWSdhWtuBRxd+wH3baKhn9ZgaH0bfwJD0utFKcWwerqfexWd3pWCyqsTjr97FHbcMTO9jR/pwQ5jRULELHvpGyMvRXqfhUCQF8ekqvPcP/wHvnrsLZycn2Nk+xt2bV+GdWAT90hyGBrrgePUTfHXPF90KNboLw3DtZgBEntC3xOIv//gFGvXS36TRD1+fOofuV/svyI4qhDVJIezdT28gMipKDk5P2vcf/xxvnbokLUciNDgedR2bioRIIeybD0/joU/Eluv4P/4Bf/UPv4ZrSBTCw8ORktkshbA1TI8NojbVHSc+PInc1l5otJ2wv3QdWR0ioulw+es/4PvIDml5BA+//T3801vkX0NEz2MIIyJzxxBGL7QyrUJWYAB8A4IQFhaMoMBghIaGIig4FLGxcYgIlcJVoD8CwwKlHdBA+HgFIbdsEAs6LcbHxtGZ5oWH5x9DPTmJlCvf4PptRzhev4QbVunSrevg/uVJ/P1nJ1GqefnhoCchTISqn0sZoXAQOJdtXP8fpf7/fVMAE5UQP0wC/nubl5uOONFRg6r2YayPN+D3J36Oc1dv4+SJt+GQNGDaQgqj+U44c+02Rk0vibV5LbIio1HeokBFVjBu37qEP7z1IbLbFQiWdpz/0//3K1w8/wnue+XseyDjKEKYotgDDsGx8nKU73dwjsvCvSvS/Q9PRUGCF27eC0HnsBbayTFMSO8RhskuBDvdwQcnfoZfvP0p7nnGYGRqHBH212Gf3oo1dRH+w//1V7j8wAU/nX0LwQWNWNprUcFtHFUIqw5zwRW7CtPahhTXc7jsn29ae8ZIJc5/6YT+Z2bWrvam4+MzP2FrTcdlVKd44trZT/A3/+1nOHfLBpktw1BVx+Gb2+7QLhhg9fUJ/MVvrsLJ5hR+tHbEyAInIxK9CEMYEZk7hjB6odW5cdRkZSI9MxPZObkozE1FRlo8srKy5JaZnoaYjHyUFebLhRfSUrNQ3zYG6AcRlh+O4rRwhDsYd+Czrn0NG7coRDk/wt07ifKxRW0xl/HhJ1ZbS7/vkQhhIlSJ9r1x1hvmloFTacC/kQKYs2l2pDiZ8/uJxu3EdMW9FuYwEsemLWFlsBSffnkGKiksZNlb4aZ7Lpqa6lBbFI9P3j8B66hiNDc1YtxUr315fW2jYMNkOb69bIUB3QLi73yDT371M3xx1flAjuU5ihDWl+eAB6aRsCjfL/HpuW9x9noAxG/VKspw9ZMP8YcvryGjXj6K6alE5++kcFJgWgMM6gr4eSagLDsev/67v8Vf/M3/C/c8KTnv01GFsI54b1y2NU1P3STF5TtcMh379hx9Ky585YS+Z0KmCGEffXvxmRBmtNybgY+++cF4TJhMjxRfX5SVVODy16fxV//5z/HeJfen0xeJaHsMYURk7hjCaM96sm3xk2uwHKCEVWUGPrn3EF3PPh20jbgedBPp6Qm49rtPEJpZhVTr66jtW4CuPguPr0fKo0A1vmfxH//xFOqeHveyd09Gwv61FKxEu1dq7J+QQldmn7Hi3Li0/MGmACamKb5MCOtOtsUVt2SoW+LxxefW0Eofvok2NrhhGw5vb2c4Wv2An//y57h43xEOTq5oGRZxchZOt7+GR77xfBSJjmfwvU+WtLSKkKvnkJSdBherW6ge2v9r6ChC2PRgLSrqm7Gg16OmLB75bUMwLIhwahzHW1mcRGLQQ1g7FWLzab8ibb/BBQ8x4rmhvSEPF8+fw6nzznC3+g4+CVsrbL6Kww1h6+jJSYKLjR0uffER3nr7PDy9fODl7gYXUYJfal+993P8+uMz8rKzsz3cvNPlqoYxLtJz4sEl/Orv38U1G+O2xuYKx7vn8He/+DXu2ot1J9g+9kSeOPGdZKY5Ae9/+R36Nz0/lzXdCPG3xT+9fRHurg9w66oLpnauW0P0xmMIIyJzxxBGe6JrzcSHJz6BR17X01GeZZ0aMc5n8F9O30SdduPr/hV1GaxuX0dOagKczt1GfnEJrD/4A6xveeLBVx/jrd99hfyiZDy+cw5nz16Fa2TzpsIcyxju7YRCYyzo8SKbjwkTwUpMQXy4aaBCL93Jj5ON5xLbXLBj7yFsDZFW53EjtAotGXb49Ia/1LcKnx8/hUOcaQRnsRU//HgWVZszwHgNzr77EXKGV6EuccGHn19EhxwyZ+D34+fIbJnFcHEYvvzxJnpn97cnfRQhzKAuwa3LJ3Hh2i3cvXoJ578+g1t3buPqD9/hk5Pf4fadu7h5TepLNKVgkyibr3DJzzRNb3UWubHOcMotQG9FJr67GYmR/nJ8/dG3yFLsb0znsEfCJns7UFlSitrGFnR3tSMzIwwxWQVyiXrRGppa0dJYLy9XVJShqqYL42NjaK0oR1lVLVrbmlBTZdzW2IoRH5aIuqZutDTUoaqyHKUl1ehTGZ/vcy0JeO/Lc09HwkbrMvEozAt1/X2wu2aD1LZBxEmvm+8Dik1bENF2GMKIyNwxhNGuljUNuPz7T+GTu3Es1AYDYu0/xn88dV4KYsaemeZifPGXv8Lbf/o9vLxSsTDRh2BXX2RXKKEsT4HdVU94PLwFj4w26Hsy4esXiLmneWQCdt99ilvh1ab17W0OYSJciVL0/0pqoa1SCJRu61rhxkjZkwD2UiHMoMSdHy4gu2MMgT+9jx+Cxf1Zhce9T+CerTBuo6mSQuRXyBvcmFyoLgnCt2cd0VCdgrc+fBfhT6fpTcHvwudIqDSuFwadx6nvf0TLyKu/lo4ihE02B+DzW3cwvrYGTXEAHC87YV5aHi5JxOlLiViVllUVLvgmIFge3VxbWsCEFEKC7H/AP777BWweWOPa1R9x3TsD4iwdc83ZOHXeRy7v35Xlij98eR5lva9+/o7DDmGbDbXm4vbFc0jr2/kLgt20JYbj4kMf1AyK0jYb5ibGMVAVh9+c+C0u33sIa+vrOH35MaqGxJNVB6sfbiO2aR7rU9344fS7eBRbiSWOiBFtiyGMiMwdQxjtaE5dj9sn/4hHIZWmnu3MIOTuL/H/fPoD6kfm0ZIZiFu+yQj48Y/47YnTqJp4eoQUFhRtyArPRmld19PjolalILfxsbaG2SktZvQ7HzVVbDom7EkI+zdSE0U3/q0rcDLVWLJetM0B7EkI2706ohRSqkPx+dcXkZvhg4//6weoGhW9M3hw5RP41ZsqN87U4evvv0S+sZ64ZBlRt7/CaaskVFWmwres39QvLMD/+48RXWKcpiiONyuOckNAasum//vLOYoQNtcdgbOPbCEerrnaKHjf9ZHv71RdNn68ky1vo23yxQ/hUfLyYn8NbK/cRFBlFxR9Pehob0db39DTv/VwSSA+/cZDPqZMKI/zgndiw7E8BnsNYYvqHsTZPsDnj1xR3TWBldX1V76/RgY0l8bizo+fwCqsGBPyn2EWOQ7WuB2UjJ5hFbo6OtDe3gG1/knKUuLKqXOIaTAGN8NgGWzsg6DQ7e+eEFkqhjAiMncMYfRiazMIe3gJ930LpaC0C8MQ3M7eQUZrPxJsfkBGv17KJNMoCHHG19/+gBs3b+Hu3buwsn6AR48f4dGjh7C2uofbt2/isX3K0+qCe1UmZZl/9thYkl4EsT8zjXiJ4PVkBOxJ/9Mmrf8LKaj9uRTUxPFiO6mLuYtL1uFSmIpEaEYVeip8cen7r3HmO3+o5g0ojnuIH7/5BpfswzD5JGGsjOH+hS/hV2E8n5psbRbp4c64ePF7fH3bHr2iVOMBEQFkcnLTealegkaj2TWE6cbUqE2+jz+ePYfa3l7URDzCtS+vo01aLo/0xPtfeqJXLMfewHvWD9EphS1RHGU7c4MFsLO6iK8+ew/OcY1Pjyvcr/n5+UN9DJbG2uF/9xb8Q0vkkbyDtD4zCMfrP8E6vGyH19c00kLu4uLZP+GbK/YY1nMHkGgvGMKIyNwxhNEOVjGne4nQID6bVubQVteOhU311w1aDVSqYQwPm5p607JKBfXIFJZfcq9cFOD4OMkYxMSImAheu7V/Jm0nStjfLpby4S6pctmwgKUnZxiWGHQaDA2NQMpfMp1WDaVqFIubB+zW17CwuLB1lGR9FdOTYxhSqqA1HOzcsZWVFXk0R4QQMRq01yauoxXnLhPVS15oHW3JEbC+cR23pPD84OFDPLh/D3fvPFm2wu07Vnho6r915xasH/qj/QVpetUwixG1EiPj0wcWwITV1VX5//+yj4HYXjwGa2s735v15QXMzO6S2PdlRbr9+RePrK2vYHpiWHquSc+95Z3+XkS0GUMYEZk7hjB6bc1IgUiMiJUOGX/u1sRxZNVq4zFjlkKEEDEiptPp9tzE6NHOAez1wseAiJ7FEGaeVlZWoRoeQ1+/Cr1SEz/Z2A6r9fYPoX9Ahanpg57LcjAYwoiIiMiiMISZHxHAFEo1Jian5GU2tqNo+gUDFINqswxiDGFERERkURjCzI/YCR4akqtcER2pxcUleUTM3DCEERERkUVhCDM/49Ljrx4xVRcmOkKrq2vo6x8yrZkPhjAiIiKyKAxh5mdikiGMjoeYlsgQRkRERHTIGMLMD0MYHReGMCIiIqIjwBBmfhjC6LgwhBEREREdAYYw88MQRsdltxC2LF3e1qVE3+CYqefFJrSzaOkclM/xuV8MYURERGRRzC2Era0sY2lp6bm2utP5CtcN6Oqsh2LaYOp43vykEi0DL6o4uI6dbn5S2Y92xbRp7fAxhNFx2S2EpeXVwSM4Cw2tA6aerZaWVuTiHoJqZBKh8cVym9e/+LW5FwxhREREZFHMKYT15yUi0DMQsfHxiN/U4uKi4OsWhhblnGnLZ6zPICLUHum9Lw5KI2258EyrNq1tGG+rRXxmGcYWntzfdcyoh9DW3ITmlha0trYiP9YTF84/Ql6Ncb25qQktnT3QLb1a0NwNQxgdl51C2MLiErxCs9HRs30Je83EDAKi8jG9aeRLN7cA77AcKIY0pp5XwxBGREREFsWcQlhLlDfcnfyRkpaGtE0tNTUeLvdcUd4xZdryWctISfRG8ciSaf15Y51FCMyuN62tQDc+iOKMYMSEZKC1cxzG7+6FOeS52CI0JgslJUXIyc1FcVk5yktLUFxciOzsPBQUFqKkqh6TT4PbwWIIo+OyUwibmpmHT3gu+pXbjyhX1ncjIDpfnrL4xMKCAT4RuS8MbnvFEEZEREQWxZxCWEesL1xsvRCXkICETS0+LhIOd1xR1Wv8hl0z2IHS0jJUVFSYWiHc3Kzhl1qw0VcuXV7biEm9MV6JEBac34AJZTcq0zKRHB6J5l4lFuRLN9Oh0t8TJXV9aKwvlcJYLEoa2tHZ2YnOxgoEBySiWLrd9u4+LG7sax4ohjA6LjuFsLn5RXlUq3tAberZYFhahmdINsrrukw9RmIaoq8UwnoGRkw9r4YhjIiIiCyKOYSwVcMcxjUaDDTVIjU2FvGJSUhLy0BKUqIpiMUjMTkHbX0qjEm3PdzfjLz8AhQVFRlbYQoeX7gBt7C0TX3S5eXVmDClLN1gJSLK2jGvGcSgWm/s3JYIYR7ILKhHfl4SHj5+APfACERFRSEy2Bs3rrsgITsfZdX10C2brnLAGMLouLwohK2uraG7Xw3/yHyMjD0/Ii1ClmtgBtSjWlOPkTg+LDGrGgXlrXJQe1UMYURERGRRzCGEzY20ITHIETZOzkhIz0B6WgLcvewRFJeGzKwsZKSnIz0jHYlxUUioaMXzA1AaPD77I8LztykWsKBBZUk+EsK98MA9GMWl5SgvL0NpaQkKC/KRny9aHnKyi9GnFsec6VHi6wnj4WXLiA73RkBcOnJycpCZGA5b+xzsv9bbzhjC6Li8KIQNS+HK1isJpdUdpp4NoqiNKNgREl9k6tmqb3AUVk6xqGnsNfW8PIYwIiIisihmMx1xtgshno8QlZqBzJRoPA70RnZVLmLDfBEbH4eYyFDExmVibpubHWnKhKPHY3jEJUH7zGFhawtatDbWIicxGHYBMaitrUV+vAeu2Hiisr4BddJ6bW0NqqoaoJrQS3uUcyjx90Nj9yiGFF2ob2lFn1INtVqNkaEBafsWabvpTceQHTyGMDouLwphYhRLHPMVk1ouF9vYTDe/KI+CicufJW4vJbcWSdnVmH3mei+DIYyIiIgsirmEsOWJNgS6WsEvPArRYX645+2F+r4uZCQEo2N6GQvKKvj4pWJ6xXSFJ5Y0iPZxRZNiFAWJoUhqev54FWFmoAIhha3GlXUdEqNDUK3eZh9teRzZgXno6GtFRqA9rlyzRnhiKrKzspCSEIY7F8/DPb4Uz96Ng8QQRsdlt2PCjIU5tp4jrL17SO4XRTieJXKQqKjIY8KIiIiINjGXELY60YroCF/U9w5AqWiBf5wPuqV9uilFBcrLy5EZH4HC9md35FZQEueN8MxmORQZxpoRHhCIvqnnjz0Z7y5BUF6jaU3adqQGbi7+aJzcOnS2PN6MiMRCPNl762soRWZWIdr6elCcF4ecsmbMGl5ylO8lMYTRcdkphInS895S2OpVbH0dhsYXITW31rS2lX5hUS7M0dk7bOp5NQxhREREZFHMIYStr61iqr8MMUmxGFAOID8pEo9sb8AzvgCacQXsf/wc52xDML3pYLCl+TEURPshMLYUuk39w03ZcPDwRqNio3jA2toa1G0FCMypx5JhEerWTgwPzWG4vRxuNgGoaBzCknwbq6jLikRMUQsW5ucxP6VCWUYEbGwe4bbtY1i5eSOtshMLiwvS/t0CVqTbPQwMYXRcdgthXqE5W0rUi+1Tc2ox8ILzgBkMS3JFRYYwIiIiok3MIYTVVhThg7d/i9+c+Ce88+lXKEgOR1SSB87ff4QP3/kN/vTNGZz/8gs4uvqgvncQOckB+M3vfoN3PjmNO9aP0NzYYLydujrYSoHp8rnP8U+/OoEHXqEYnltBR3s7rp3/Ar/87W/w2xMn4OIRifm5ZXR0duD6t1/g7T/+E37/8SfIys5AR1slUnKLcPq9t/HBRx/gq9OnkZiei5XVZRTmZuHUqc9w8v33cOKdD5BX9vzJnw8CQxgdl51CmHhNRyaVISS2SC62Iayvr8vX2c6k9B6SklMjT0ecmd2pIunuGMKIiIjIophDCNNoNKirb0Bra6u0o9WI+dlJTE4rUd1Qi8LSSrRJIaqjvRV9rbWo6OhDU10BsgvK0NregcaGekxMTMi3Mz4+jnrpdlpa29FSW47coiIodSuYnZ5GUog9rtu5IruwVLp/culDafsJNDa3oK2lCfmZcajvUMj9M1NaNDQ2orGpCc0trZiW1gWdTocmKfA1Sf11UuAT9/swMITRcdkphAlj49PILGhAY5vxtbITlXpSrpqoVO3/ucwQRkRERBbFXI4JO3zmdn9ejCGMjstuIey4MIQRERGRRXlzQtjrgyGMjgtDGBEREdERYAgzPwxhdFwYwoiIiIiOAEOY+WEIo+PCEEZERER0BBjCzM+kdgaq4a0nxCU6CsvLKwxhRERERIeNIcz8GJaW0D+gwtz8/sp6E70M8ZodVmswpjFWAzUnDGFERERkURjCzJNe2n8cUAzLYYyN7ShaX78KI2MTWFs3v9cuQxgRERFZFIYw87W6uobFRQMb25E0w9Ky6ZlnfhjCiIiIyKIwhBGRuWMIIyIiIovCEEZE5o4hjIiIiCwKQxgRmTuGMCIiIrIoDGFEZO4YwoiIiMiiMIQRkbljCCMiIiKLwhBGRObOGMIa8P8DnQduXbCCqjQAAAAASUVORK5CYII=;" parent="1" vertex="1">
          <mxGeometry x="120" y="130" width="865" height="435" as="geometry" />
        </mxCell>
        <mxCell id="1MljCELuAj6sRFgwagAY-2" value="" style="rounded=0;whiteSpace=wrap;html=1;fillColor=none;strokeWidth=3;dashed=1;strokeColor=#1890FF;" parent="1" vertex="1">
          <mxGeometry x="700" y="130" width="285" height="440" as="geometry" />
        </mxCell>
        <mxCell id="1MljCELuAj6sRFgwagAY-3" value="" style="rounded=0;whiteSpace=wrap;html=1;fillColor=#f5f5f5;fontColor=#333333;strokeColor=#666666;opacity=20;" parent="1" vertex="1">
          <mxGeometry x="120" y="130" width="580" height="440" as="geometry" />
        </mxCell>
        <mxCell id="1MljCELuAj6sRFgwagAY-4" value="" style="rounded=0;whiteSpace=wrap;html=1;fillColor=#dae8fc;strokeColor=#6c8ebf;opacity=20;" parent="1" vertex="1">
          <mxGeometry x="703.5" y="131" width="277.5" height="30" as="geometry" />
        </mxCell>
        <mxCell id="1MljCELuAj6sRFgwagAY-5" value="" style="rounded=0;whiteSpace=wrap;html=1;fillColor=#fff2cc;strokeColor=none;opacity=20;" parent="1" vertex="1">
          <mxGeometry x="703.5" y="160" width="277.5" height="30" as="geometry" />
        </mxCell>
        <mxCell id="1MljCELuAj6sRFgwagAY-6" value="" style="rounded=0;whiteSpace=wrap;html=1;fillColor=#f8cecc;strokeColor=#b85450;opacity=20;" parent="1" vertex="1">
          <mxGeometry x="703.5" y="190" width="277.5" height="380" as="geometry" />
        </mxCell>
        <mxCell id="1MljCELuAj6sRFgwagAY-7" value="1" style="ellipse;whiteSpace=wrap;html=1;aspect=fixed;strokeColor=none;fillColor=#FF3333;fontSize=14;fontColor=#FFFFFF;" parent="1" vertex="1">
          <mxGeometry x="920" y="131" width="30" height="30" as="geometry" />
        </mxCell>
        <mxCell id="1MljCELuAj6sRFgwagAY-8" value="2" style="ellipse;whiteSpace=wrap;html=1;aspect=fixed;strokeColor=none;fillColor=#FF3333;fontSize=14;fontColor=#FFFFFF;" parent="1" vertex="1">
          <mxGeometry x="760" y="161" width="30" height="30" as="geometry" />
        </mxCell>
        <mxCell id="1MljCELuAj6sRFgwagAY-9" value="3" style="ellipse;whiteSpace=wrap;html=1;aspect=fixed;strokeColor=none;fillColor=#FF3333;fontSize=14;fontColor=#FFFFFF;" parent="1" vertex="1">
          <mxGeometry x="703.5" y="200" width="30" height="30" as="geometry" />
        </mxCell>
        <mxCell id="1MljCELuAj6sRFgwagAY-12" value="" style="shape=crossbar;whiteSpace=wrap;html=1;rounded=1;direction=south;strokeWidth=2;strokeColor=#808080;" parent="1" vertex="1">
          <mxGeometry x="400" y="100" width="20" height="30" as="geometry" />
        </mxCell>
        <mxCell id="1MljCELuAj6sRFgwagAY-13" value="" style="shape=crossbar;whiteSpace=wrap;html=1;rounded=1;direction=south;strokeWidth=2;strokeColor=#808080;" parent="1" vertex="1">
          <mxGeometry x="833" y="100" width="20" height="31" as="geometry" />
        </mxCell>
        <mxCell id="1MljCELuAj6sRFgwagAY-15" value="画布" style="text;html=1;strokeColor=none;fillColor=none;align=center;verticalAlign=middle;whiteSpace=wrap;rounded=0;fontSize=14;fontStyle=1;fontColor=#333333;" parent="1" vertex="1">
          <mxGeometry x="380" y="70" width="60" height="30" as="geometry" />
        </mxCell>
        <mxCell id="1MljCELuAj6sRFgwagAY-16" value="设置器面板" style="text;html=1;strokeColor=none;fillColor=none;align=center;verticalAlign=middle;whiteSpace=wrap;rounded=0;fontSize=14;fontStyle=1;fontColor=#333333;" parent="1" vertex="1">
          <mxGeometry x="803.38" y="70" width="77.75" height="30" as="geometry" />
        </mxCell>
        <mxCell id="i2RJsHRMt6rkneMp8ybF-1" value="" style="rounded=0;whiteSpace=wrap;html=1;fillColor=none;strokeWidth=3;dashed=1;strokeColor=#808080;" vertex="1" parent="1">
          <mxGeometry x="120" y="130" width="580" height="440" as="geometry" />
        </mxCell>
      </root>
    </mxGraphModel>
  </diagram>
</mxfile>
